<svg t="1695364219210" class="icon" viewBox="0 0 1024 1024" version="1.1" xmlns="http://www.w3.org/2000/svg" p-id="1168" width="200" height="200"><path d="M168.78554112 71.69516999C80.91875555 159.56195555 26.54814777 280.9249189 26.54814777 414.90963001 26.54814777 548.89434112 80.91875555 670.25730333 168.78554112 758.12408889L237.23425223 689.67537778C166.84373333 619.77031111 123.6385189 522.67994112 123.6385189 414.90963001 123.6385189 307.62476999 166.84373333 210.04894777 237.23425223 140.1438811L168.78554112 71.69516999M855.21445888 71.69516999L786.76574777 140.1438811C857.15626667 210.04894777 900.3614811 307.62476999 900.3614811 414.90963001 900.3614811 522.67994112 857.15626667 619.77031111 786.76574777 689.67537778L855.21445888 758.12408889C943.08124445 670.25730333 997.45185223 548.89434112 997.45185223 414.90963001 997.45185223 280.9249189 943.08124445 159.56195555 855.21445888 71.69516999M306.16841443 209.07804445C253.25416334 261.99229667 220.72888889 334.81007445 220.72888889 414.90963001 220.72888889 495.00918557 253.25416334 567.82696334 306.16841443 620.74121443L374.61712555 552.29250333C339.66459221 517.33996999 317.81925888 468.79478557 317.81925888 414.90963001 317.81925888 361.02447445 339.66459221 312.47928889 374.61712555 277.52675555L306.16841443 209.07804445M717.83158557 209.07804445L649.38287445 277.52675555C684.33540779 312.47928889 706.18074112 361.02447445 706.18074112 414.90963001 706.18074112 468.79478557 684.33540779 517.33996999 649.38287445 552.29250333L717.83158557 620.74121443C770.74583666 567.82696334 803.27111111 495.00918557 803.27111111 414.90963001 803.27111111 334.81007445 770.74583666 261.99229667 717.83158557 209.07804445M512 317.81925888C458.60029667 317.81925888 414.90963001 361.50992555 414.90963001 414.90963001 414.90963001 468.30933333 458.60029667 512 512 512 565.39970333 512 609.09036999 468.30933333 609.09036999 414.90963001 609.09036999 361.50992555 565.39970333 317.81925888 512 317.81925888M463.45481443 609.09036999L463.45481443 803.27111111 414.90963001 803.27111111C388.20977778 803.27111111 366.36444445 825.11644445 366.36444445 851.81629667L26.54814777 851.81629667 26.54814777 948.90666667 366.36444445 948.90666667C366.36444445 975.6065189 388.20977778 997.45185223 414.90963001 997.45185223L609.09036999 997.45185223C635.79022222 997.45185223 657.63555555 975.6065189 657.63555555 948.90666667L997.45185223 948.90666667 997.45185223 851.81629667 657.63555555 851.81629667C657.63555555 825.11644445 635.79022222 803.27111111 609.09036999 803.27111111L560.54518557 803.27111111 560.54518557 609.09036999 463.45481443 609.09036999Z" p-id="1169"></path></svg>