<svg t="1709111833526" class="icon" viewBox="0 0 1024 1024" version="1.1" xmlns="http://www.w3.org/2000/svg" p-id="1750" width="200" height="200"><path d="M257.13777778 402.77333333h218.45333333c20.10453333 0 36.40888889-16.30435555 36.40888889-36.40888888s-16.30435555-36.40888889-36.40888889-36.4088889H257.13777778c-20.10453333 0-36.40888889 16.30435555-36.40888889 36.4088889s16.30435555 36.40888889 36.40888889 36.40888888zM257.13777778 584.81777778h400.49777777c20.12728889 0 36.40888889-16.2816 36.4088889-36.40888889s-16.2816-36.40888889-36.4088889-36.40888889H257.13777778c-20.10453333 0-36.40888889 16.2816-36.40888889 36.40888889s16.30435555 36.40888889 36.40888889 36.40888889zM475.59111111 694.04444445H257.13777778c-20.10453333 0-36.40888889 16.2816-36.40888889 36.40888888s16.30435555 36.40888889 36.40888889 36.40888889h218.45333333c20.10453333 0 36.40888889-16.2816 36.40888889-36.40888889s-16.30435555-36.40888889-36.40888889-36.40888888zM998.94613333 663.50648889L870.21795555 534.77831111c-7.11111111-7.11111111-16.42951111-10.66097778-25.7479111-10.66097778s-18.6368 3.54986667-25.74791112 10.66097778L559.06986667 794.44195555c-6.82666667 6.82666667-10.66097778 16.08817778-10.66097778 25.74791112V948.90666667c0 20.10453333 16.30435555 36.40888889 36.40888889 36.40888888h128.72817777c9.65973333 0 18.92124445-3.83431111 25.74791112-10.66097777l259.65226666-259.65226667c14.21084445-14.22222222 14.21084445-37.2736 0-51.49582222zM698.45902222 912.49777778H621.22666667v-77.23235556L844.47004445 612.01066667l77.23235555 77.23235555L698.45902222 912.49777778z" p-id="1751"></path><path d="M439.18222222 912.49777778H147.91111111V111.50222222h436.74737778l0.12515556 145.73795556c0.06826667 40.08391111 32.74524445 72.71537778 72.81777777 72.71537777H803.27111111v91.02222223c0 20.10453333 16.30435555 36.40888889 36.40888889 36.40888889s36.40888889-16.30435555 36.40888889-36.40888889V242.19875555c0-9.76213333-3.92533333-19.11466667-10.87715556-25.96408888L695.28462222 49.12924445A36.41116445 36.41116445 0 0 0 669.76426667 38.68444445H111.50222222c-20.10453333 0-36.40888889 16.30435555-36.40888889 36.40888888v873.81333334c0 20.10453333 16.30435555 36.40888889 36.40888889 36.40888888h327.68c20.10453333 0 36.40888889-16.30435555 36.40888889-36.40888888s-16.30435555-36.40888889-36.40888889-36.40888889z m363.77031111-655.36H657.60142222l-0.11377777-143.0528L802.95253333 257.13777778z" p-id="1752"></path></svg>