<svg t="1709790213406" class="icon" viewBox="0 0 1024 1024" version="1.1" xmlns="http://www.w3.org/2000/svg" p-id="1592" width="200" height="200"><path d="M671.62453333 91.73333333H231.5776c-41.69386667 0-74.99093333 33.8688-74.99093333 74.99093334v690.55146666c0 41.7024 33.8688 74.99093333 74.99093333 74.99093334h560.85333333c41.12213333 0 74.9824-33.8688 74.9824-74.99093334V287.53066667L671.62453333 91.73333333z m13.50826667 79.68426667l102.58773333 102.59626667H696.0896c-5.76853333 0-10.9568-5.18826667-10.9568-10.9568V171.4176z m135.38986667 685.85813333a27.98933333 27.98933333 0 0 1-28.10026667 28.1088H231.5776a27.98933333 27.98933333 0 0 1-28.10026667-28.1088V166.72426667a27.98933333 27.98933333 0 0 1 28.10026667-28.10026667v-0.49493333h406.74986667v125.0048c0 31.81226667 26.04373333 57.77066667 57.77066666 57.77066666h124.43306667v536.3712z" p-id="1593"></path><path d="M337.792 377.6768h201.56586667a23.296 23.296 0 0 0 23.40693333-23.3984 23.296 23.296 0 0 0-23.40693333-23.40693333H337.792a23.28746667 23.28746667 0 0 0-23.40693333 23.40693333 23.296 23.296 0 0 0 23.40693333 23.3984zM685.70453333 653.65333333H337.792c-13.02186667 0-23.40693333 10.3936-23.40693333 23.40693334s10.38506667 23.40693333 23.40693333 23.40693333h347.91253333c13.02186667 0 23.40693333-10.3936 23.40693334-23.40693333S698.73493333 653.65333333 685.70453333 653.65333333zM337.792 494.77973333a23.27893333 23.27893333 0 0 0-23.40693333 23.40693334 23.28746667 23.28746667 0 0 0 23.40693333 23.3984h347.91253333a23.28746667 23.28746667 0 0 0 23.40693334-23.3984 23.28746667 23.28746667 0 0 0-23.40693334-23.40693334H337.792z" p-id="1594"></path></svg>