<svg t="1695365280492" class="icon" viewBox="0 0 1024 1024" version="1.1" xmlns="http://www.w3.org/2000/svg" p-id="1933" width="200" height="200"><path d="M512 245.0014811m-121.36296334 0a121.36296334 121.36296334 0 1 0 242.72592668 0 121.36296334 121.36296334 0 1 0-242.72592668 0Z" p-id="1934"></path><path d="M584.81777778 615.1585189v12.13629553h-145.63555556v-12.13629553z" p-id="1935"></path><path d="M609.09036999 584.81777778a36.40888889 36.40888889 0 1 1 0 72.81777777 36.40888889 36.40888889 0 0 1 0-72.81777777z m0 24.27259221a12.13629667 12.13629667 0 1 0 0 24.27259335 12.13629667 12.13629667 0 0 0 0-24.27259335zM505.93185223 487.72740779a36.40888889 36.40888889 0 1 1 0 72.81777778 36.40888889 36.40888889 0 0 1 0-72.81777778z m0 24.27259221a12.13629667 12.13629667 0 1 0 0 24.27259221 12.13629667 12.13629667 0 0 0 0-24.27259221z" p-id="1936"></path><path d="M499.86370333 548.40888889h12.13629667v72.81777778h-12.13629667zM414.90963001 584.81777778a36.40888889 36.40888889 0 1 1 0 72.81777777 36.40888889 36.40888889 0 0 1 0-72.81777777z m0 24.27259221a12.13629667 12.13629667 0 1 0 0 24.27259335 12.13629667 12.13629667 0 0 0 0-24.27259335z" p-id="1937"></path><path d="M172.18370333 778.9985189m-121.36296221 0a121.36296334 121.36296334 0 1 0 242.72592555 0 121.36296334 121.36296334 0 1 0-242.72592555 0Z" p-id="1938"></path><path d="M851.81629667 778.9985189m-121.36296334 0a121.36296334 121.36296334 0 1 0 242.72592555 0 121.36296334 121.36296334 0 1 0-242.72592555 0Z" p-id="1939"></path><path d="M512 220.72888889l372.17166222 582.54222222H139.82833778L512 220.72888889z m0 90.14840889L228.42330112 754.72592555h567.12912555L512 310.87729778z" p-id="1940"></path></svg>