<svg t="1695353373563" class="icon" viewBox="0 0 1024 1024" version="1.1"
    xmlns="http://www.w3.org/2000/svg" p-id="889" width="200" height="200">
    <path d="M788 333.99999969l-6-12C732.00000031 218 626 152 512 152 351.99999969 152 224 278 212 441.99999969c-103.99999969 25.99999969-180 118.00000031-180 220.00000031C32 777.99999969 126.00000031 872 242 872h480C870.00000031 872 992 750.00000031 992 602c0-121.99999969-82.00000031-228-204-268.00000031zM722 812h-480C159.99999969 812 92 744.00000031 92 662c0-79.99999969 66-151.99999969 154.00000031-166.00000031L272 492.00000031v-26.00000062C272 321.99999969 375.99999969 212 512 212c91.99999969 0 175.99999969 54 216 136.00000031 4.00000031 6 6 13.99999969 10.00000031 21.99999938l6 14.00000062 13.99999969 3.99999938c103.99999969 30 174 115.99999969 174 214.00000031C932 717.99999969 837.99999969 812 722 812z" p-id="890"></path>
</svg>