<svg t="1709264553301" class="icon" viewBox="0 0 1500 1024" version="1.1" xmlns="http://www.w3.org/2000/svg" p-id="6195" width="200" height="200"><path d="M594.488889 667.022222c-14.222222 7.111111-44.088889 17.066667-82.488889 17.066667-86.755556 0-143.644444-59.733333-143.644444-147.911111 0-89.6 61.155556-153.6 155.022222-153.6 31.288889 0 58.311111 7.111111 72.533333 14.222222l-12.8 41.244444c-12.8-7.111111-32.711111-14.222222-61.155555-14.222222-66.844444 0-102.4 48.355556-102.4 109.511111 0 66.844444 42.666667 108.088889 100.977777 108.088889 29.866667 0 49.777778-7.111111 64-14.222222l9.955556 39.822222zM726.755556 305.777778v82.488889h75.377777v39.822222h-75.377777v156.444444c0 35.555556 9.955556 55.466667 39.822222 55.466667 14.222222 0 24.177778-1.422222 29.866666-4.266667l2.844445 39.822223c-9.955556 4.266667-25.6 7.111111-46.933333 7.111111-24.177778 0-44.088889-7.111111-56.888889-22.755556-14.222222-15.644444-19.911111-41.244444-19.911111-75.377778v-156.444444h-45.511112v-39.822222h45.511112v-69.688889l51.2-12.8zM860.444444 479.288889c0-34.133333 0-64-2.844444-89.6h45.511111l1.422222 56.888889h2.844445c12.8-38.4 45.511111-64 79.644444-64 5.688889 0 9.955556 0 15.644445 1.422222v49.777778c-5.688889-1.422222-11.377778-1.422222-18.488889-1.422222-36.977778 0-64 28.444444-71.111111 66.844444-1.422222 7.111111-2.844444 15.644444-2.844445 24.177778v153.6h-52.622222V479.288889h2.844444zM1058.133333 253.155556h52.622223v423.822222h-52.622223V253.155556z" p-id="6196"></path></svg>