<svg t="1695365263445" class="icon" viewBox="0 0 1024 1024" version="1.1" xmlns="http://www.w3.org/2000/svg" p-id="1786" width="200" height="200"><path d="M287.20924445 610.98666667m-33.65546667 0a33.65546667 33.65546667 0 1 0 67.31093333 0 33.65546667 33.65546667 0 1 0-67.31093333 0Z" p-id="1787"></path><path d="M362.38222222 858.40782222h-0.02275555c-104.01564445-0.01137778-185.08231111-32.52906667-240.9472-96.6656-101.72871111-116.79288889-78.48391111-294.52515555-77.44853334-302.03448889l4.66488889-33.70097778h593.84035556c-12.85688889-68.26666667-20.10453333-181.93066667 65.7408-208.74808888 15.18933333-4.74453333 36.02204445-7.5776 55.72835555-7.5776 46.72853333 0 83.06915555 14.55217778 105.08515556 42.0864 7.8848 9.86453333 15.86062222 24.064 19.46737778 43.45173333 32.09671111 0.59164445 59.51715555 17.97688889 77.38026666 49.10648889 20.69617778 36.07893333 25.09937778 76.07182222 12.06044445 109.72728889-8.82915555 22.80106667-29.75288889 53.32764445-79.20071111 69.21102222-29.67324445 9.5232-41.96124445 17.07804445-46.27342222 20.2752l-0.3640889 0.77368889c-42.51875555 89.25866667-172.73742222 298.47324445-462.77973333 313.38951111-9.10222222 0.46648889-18.17031111 0.70542222-26.9312 0.70542222zM119.25048889 504.1152c-0.9216 49.55022222 5.71164445 143.04142222 61.29208889 206.59768889 40.36835555 46.17102222 101.54666667 69.58648889 181.80551111 69.59786666h0.03413333a440.32 440.32 0 0 0 22.92622223-0.6144C628.70186667 767.19217778 740.80711111 594.09066667 779.42328889 515.18577778c10.94542222-39.16231111 73.40942222-59.22133333 95.42542222-66.28693333 16.15644445-5.18826667 26.33955555-12.94791111 30.25351111-23.05137778 4.41457778-11.38915555 1.79768889-27.32942222-6.97457777-42.64391112-5.67751111-9.88728889-9.216-9.88728889-11.33226667-9.88728888-5.58648889 0-12.82275555 2.88995555-18.11342223 4.99484444-3.52711111 1.41084445-6.87217778 2.74204445-10.68373333 3.73191111l-61.97475555 16.05404445L810.10915555 335.64444445c2.13902222-9.46631111 4.69902222-26.60124445-2.08213333-35.08906667-6.29191111-7.87342222-23.18791111-12.76586667-44.07751111-12.76586667-15.43964445 0-27.65937778 2.52586667-32.44942222 4.02773334-28.68337778 8.96568889-20.42311111 101.85386667-2.1504 161.87164444l15.36 50.43768889H119.25048889z" p-id="1788"></path><path d="M277.18542222 365.37457778c0 18.65955555-15.12106667 33.78062222-33.78062222 33.78062222h-32.24462222c-18.65955555 0-33.78062222-15.12106667-33.78062223-33.78062222v-33.73511111c0-18.65955555 15.12106667-33.78062222 33.78062223-33.78062222h32.24462222c18.65955555 0 33.78062222 15.12106667 33.78062222 33.78062222v33.73511111zM406.53937778 365.37457778c0 18.65955555-15.12106667 33.78062222-33.78062223 33.78062222h-32.24462222c-18.65955555 0-33.78062222-15.12106667-33.78062222-33.78062222v-33.73511111c0-18.65955555 15.12106667-33.78062222 33.78062222-33.78062222h32.24462222c18.65955555 0 33.78062222 15.12106667 33.78062223 33.78062222v33.73511111zM534.55075555 365.37457778c0 18.65955555-15.12106667 33.78062222-33.78062222 33.78062222h-32.24462222c-18.65955555 0-33.78062222-15.12106667-33.78062222-33.78062222v-33.73511111c0-18.65955555 15.12106667-33.78062222 33.78062222-33.78062222h32.24462222c18.65955555 0 33.78062222 15.12106667 33.78062222 33.78062222v33.73511111zM404.10453333 238.45546667c0 18.65955555-15.12106667 33.78062222-33.78062222 33.78062222h-32.24462222c-18.65955555 0-33.78062222-15.12106667-33.78062222-33.78062222v-33.73511112c0-18.65955555 15.12106667-33.78062222 33.78062222-33.78062222h32.24462222c18.65955555 0 33.78062222 15.12106667 33.78062222 33.78062222v33.73511112zM533.46986667 238.45546667c0 18.65955555-15.12106667 33.78062222-33.78062222 33.78062222h-32.24462223c-18.65955555 0-33.78062222-15.12106667-33.78062222-33.78062222v-33.73511112c0-18.65955555 15.12106667-33.78062222 33.78062222-33.78062222h32.24462223c18.65955555 0 33.78062222 15.12106667 33.78062222 33.78062222v33.73511112z" p-id="1789"></path></svg>