<svg t="1695353616478" class="icon" viewBox="0 0 1024 1024" version="1.1" xmlns="http://www.w3.org/2000/svg" p-id="1245" width="200" height="200"><path d="M307.2 238.93333333A69.13137813 69.13137813 0 0 0 238.93333333 307.2v409.6A69.13137813 69.13137813 0 0 0 307.2 785.06666667h409.6a69.13137813 69.13137813 0 0 0 68.26666667-68.26666667v-409.6A69.13137813 69.13137813 0 0 0 716.8 238.93333333h-409.6z m0-68.26666666h409.6c38.41137813 0.72817813 70.58773333 14.06293333 96.52906667 40.00426666 25.94133333 25.94133333 39.27608853 58.1632 40.00426666 96.52906667v409.6c-0.68266667 38.41137813-14.01742187 70.58773333-40.00426666 96.52906667-25.94133333 25.94133333-58.11768853 39.27608853-96.52906667 40.00426666h-409.6c-38.41137813-0.68266667-70.58773333-14.01742187-96.52906667-40.00426666-25.94133333-25.94133333-39.27608853-58.11768853-40.00426666-96.52906667v-409.6c0.72817813-38.41137813 14.06293333-70.58773333 40.00426666-96.52906667 25.94133333-25.94133333 58.1632-39.27608853 96.52906667-40.00426666z m204.8-136.53333334a33.22311147 33.22311147 0 0 1 24.576 9.55733334c6.3715552 6.41706667 9.55733333 14.60906667 9.55733333 24.576v136.53333333h-68.26666666v-136.53333333a33.22311147 33.22311147 0 0 1 9.55733333-24.576 33.22311147 33.22311147 0 0 1 24.576-9.55733334z m170.66666667 0a33.22311147 33.22311147 0 0 1 24.576 9.55733334c6.3715552 6.41706667 9.55733333 14.60906667 9.55733333 24.576v136.53333333H648.53333333v-136.53333333a33.22311147 33.22311147 0 0 1 9.55733334-24.576 33.22311147 33.22311147 0 0 1 24.576-9.55733334z m-341.33333334 0a33.22311147 33.22311147 0 0 1 24.576 9.55733334c6.3715552 6.41706667 9.55733333 14.60906667 9.55733334 24.576v136.53333333H307.2v-136.53333333a33.22311147 33.22311147 0 0 1 9.55733333-24.576 33.22311147 33.22311147 0 0 1 24.576-9.55733334z m170.66666667 955.73333334a33.22311147 33.22311147 0 0 1-24.576-9.55733334 33.22311147 33.22311147 0 0 1-9.55733333-24.576v-136.53333333h68.26666666v136.53333333a33.22311147 33.22311147 0 0 1-9.55733333 24.576 33.22311147 33.22311147 0 0 1-24.576 9.55733334z m170.66666667 0a33.22311147 33.22311147 0 0 1-24.576-9.55733334 33.22311147 33.22311147 0 0 1-9.55733334-24.576v-136.53333333h68.26666667v136.53333333a33.22311147 33.22311147 0 0 1-9.55733333 24.576 33.22311147 33.22311147 0 0 1-24.576 9.55733334z m-341.33333334 0a33.22311147 33.22311147 0 0 1-24.576-9.55733334 33.22311147 33.22311147 0 0 1-9.55733333-24.576v-136.53333333H375.46666667v136.53333333a33.22311147 33.22311147 0 0 1-9.55733334 24.576 33.22311147 33.22311147 0 0 1-24.576 9.55733334zM34.13333333 512a33.22311147 33.22311147 0 0 1 9.55733334-24.576 33.22311147 33.22311147 0 0 1 24.576-9.55733333h136.53333333v68.26666666h-136.53333333a33.22311147 33.22311147 0 0 1-24.576-9.55733333 33.22311147 33.22311147 0 0 1-9.55733334-24.576z m0-170.66666667a33.22311147 33.22311147 0 0 1 9.55733334-24.576 33.22311147 33.22311147 0 0 1 24.576-9.55733333h136.53333333V375.46666667h-136.53333333a33.22311147 33.22311147 0 0 1-24.576-9.55733334 33.22311147 33.22311147 0 0 1-9.55733334-24.576z m0 341.33333334a33.22311147 33.22311147 0 0 1 9.55733334-24.576 33.22311147 33.22311147 0 0 1 24.576-9.55733334h136.53333333v68.26666667h-136.53333333a33.22311147 33.22311147 0 0 1-24.576-9.55733333 33.22311147 33.22311147 0 0 1-9.55733334-24.576z m955.73333334-170.66666667a33.22311147 33.22311147 0 0 1-9.55733334 24.576 33.22311147 33.22311147 0 0 1-24.576 9.55733333h-136.53333333v-68.26666666h136.53333333a33.22311147 33.22311147 0 0 1 24.576 9.55733333c6.3715552 6.41706667 9.55733333 14.60906667 9.55733334 24.576z m0-170.66666667a33.22311147 33.22311147 0 0 1-9.55733334 24.576 33.22311147 33.22311147 0 0 1-24.576 9.55733334h-136.53333333V307.2h136.53333333a33.22311147 33.22311147 0 0 1 24.576 9.55733333c6.3715552 6.41706667 9.55733333 14.60906667 9.55733334 24.576z m0 341.33333334a33.22311147 33.22311147 0 0 1-9.55733334 24.576 33.22311147 33.22311147 0 0 1-24.576 9.55733333h-136.53333333V648.53333333h136.53333333a33.22311147 33.22311147 0 0 1 24.576 9.55733334c6.3715552 6.41706667 9.55733333 14.60906667 9.55733334 24.576z" p-id="1246"></path></svg>