<svg t="1695364541612" class="icon" viewBox="0 0 1024 1024" version="1.1" xmlns="http://www.w3.org/2000/svg" p-id="1596" width="200" height="200"><path d="M902.30328889 380.928l15.72864-15.72864 33.78744889 33.78744889 20.38897777-23.30168889L867.35075555 267.33226667l-32.62236444-1.16508445-54.75896889-54.17642667-46.02083555 47.18592L587.73048889 124.60942222s-108.93539555-69.90506667-221.94858667 23.30168889c-112.43064889 93.20675555-47.76846222 208.55011555-47.76846222 208.55011556l92.04167111 105.44014222 56.50659556-51.26371556-69.32252445-80.97336888s-47.76846222-66.40981333 13.98101333-124.08149334c62.33201778-57.67168 128.74183111-26.79694222 128.74183112-26.79694222l135.73233778 134.56725333-47.18592 45.43829333 147.96572444 150.87843556 3.49525333-1.16508444 20.97152-25.04931556 68.15744 69.90506667 103.10997333-104.8576-69.90506666-67.57489778z m-414.77006222 50.68117333l52.4288 52.4288-54.17642667 54.17642667-52.4288-52.4288 54.17642667-54.17642667z m68.15744 173.59758222l-52.4288-52.4288 54.17642666-53.59388444 52.4288 52.4288-54.17642666 53.59388444z m80.39082666-27.37948444l-54.17642666 51.26371556 44.27320888 54.75896888s47.76846222 66.40981333-13.98101333 124.08149334c-62.33201778 57.67168-128.74183111 26.79694222-128.74183111 26.79694222l-135.73233778-134.56725333 47.18592-45.43829333-147.96572444-150.87843556-3.49525334 1.16508444-20.97152 25.04931556L153.73653333 459.5712l-103.10997333 104.8576L121.69671111 632.58624l-15.72864 15.72864-33.78744889-33.78744889-20.38897777 23.30168889 104.8576 108.35285333 32.62236444 0.58254222 54.75896889 54.17642667 46.02083555-47.18592L436.26951111 888.32227555s108.93539555 69.90506667 221.94858667-23.30168888c112.43064889-93.20675555 47.76846222-208.55011555 47.76846222-208.55011556l-69.90506667-78.6432z" p-id="1597"></path></svg>