<svg t="1709776682639" class="icon" viewBox="0 0 1024 1024" version="1.1" xmlns="http://www.w3.org/2000/svg" p-id="1686" width="200" height="200"><path d="M0 0h1024v1024H0V0z" fill="#202425" opacity=".01" p-id="1687"></path><path d="M102.4 170.666667a136.533333 136.533333 0 0 1 136.533333-136.533334h546.133334a136.533333 136.533333 0 0 1 136.533333 136.533334v532.002133a34.133333 34.133333 0 0 1-10.001067 24.132267l-253.064533 253.064533a34.133333 34.133333 0 0 1-24.132267 10.001067H238.933333a136.533333 136.533333 0 0 1-136.533333-136.533334V170.666667z" fill="#FF7744" p-id="1688"></path><path d="M648.533333 785.066667a68.266667 68.266667 0 0 1 68.266667-68.266667h196.573867a3.413333 3.413333 0 0 1 2.389333 5.802667l-261.393067 261.461333a3.413333 3.413333 0 0 1-5.8368-2.423467V785.066667z" fill="#FFAA44" p-id="1689"></path><path d="M256 238.933333A51.2 51.2 0 0 1 307.2 187.733333h409.6a51.2 51.2 0 0 1 0 102.4H307.2A51.2 51.2 0 0 1 256 238.933333z m0 204.8A51.2 51.2 0 0 1 307.2 392.533333h409.6a51.2 51.2 0 0 1 0 102.4H307.2A51.2 51.2 0 0 1 256 443.733333z m0 204.8A51.2 51.2 0 0 1 307.2 597.333333h204.8a51.2 51.2 0 0 1 0 102.4H307.2A51.2 51.2 0 0 1 256 648.533333z" fill="#FFFFFF" p-id="1690"></path></svg>