<svg t="1709111811929" class="icon" viewBox="0 0 1024 1024" version="1.1" xmlns="http://www.w3.org/2000/svg" p-id="1614" width="200" height="200"><path d="M572.00184889 368.11207111c0 15.72864 8.15559111 30.29219555 21.55406222 37.86524444 13.39847111 7.57304889 30.29219555 7.57304889 43.69066667 0s22.13660445-22.13660445 21.55406222-37.86524444c0-15.72864-8.15559111-30.29219555-21.55406222-37.86524444-13.39847111-7.57304889-30.29219555-7.57304889-43.69066667 0s-21.55406222 22.13660445-21.55406222 37.86524444z m0 0M585.98286222 455.49340445l-65.24472889 87.38133333-174.76266666-174.76266667-174.76266667 262.144h524.288l-109.51793778-174.76266666z m-415.35260444 240.00739555h305.83466667v43.69066667h-305.83466667v-43.69066667z m0 109.51793778h524.288v43.69066667h-524.288v-43.69066667z m0 0" p-id="1615"></path><path d="M747.9296 260.92430222v651.28220445h-629.72814222V260.92430222h629.72814222m2.33016889-46.60337777H115.87128889c-24.46677333 0-44.27320889 19.80643555-44.27320889 44.27320888V914.53667555c0 24.46677333 19.80643555 44.27320889 44.27320889 44.2732089h634.38848c24.46677333 0 44.27320889-19.80643555 44.27320889-44.2732089V258.01159111c0-23.88423111-20.38897778-43.69066667-44.27320889-43.69066666z" p-id="1616"></path><path d="M934.34311111 732.20096c-12.81592889 0-23.30168889-10.48576-23.30168889-23.30168889v-488.17038222c0-57.67168-47.18592-104.8576-104.8576-104.8576h-466.03377777c-12.81592889 0-23.30168889-10.48576-23.3016889-23.30168889s10.48576-23.30168889 23.3016889-23.30168889h466.03377777c83.30353778 0 151.46097778 68.15744 151.46097778 151.46097778v488.17038222c0 12.81592889-10.48576 23.30168889-23.30168889 23.30168889z" p-id="1617"></path></svg>