<svg t="1695353661062" class="icon" viewBox="0 0 1024 1024" version="1.1" xmlns="http://www.w3.org/2000/svg" p-id="1525" width="200" height="200"><path d="M754.72592592 839.68H269.27407408c-46.84367645 0-84.95407408-38.11039763-84.95407408-84.95407408V269.27407408c0-46.84367645 38.11039763-84.95407408 84.95407408-84.95407408h485.45185184c46.84367645 0 84.95407408 38.11039763 84.95407408 84.95407408v485.45185184c0 46.84367645-38.11039763 84.95407408-84.95407408 84.95407408zM269.27407408 232.86518518c-20.07586133 0-36.40888889 16.33302755-36.4088889 36.4088889v485.45185184c0 20.07586133 16.33302755 36.40888889 36.4088889 36.4088889h485.45185184c20.07586133 0 36.40888889-16.33302755 36.4088889-36.4088889V269.27407408c0-20.07586133-16.33302755-36.40888889-36.4088889-36.4088889H269.27407408z" p-id="1526"></path><path d="M643.072 700.11259259H380.928c-31.45242548 0-57.04059259-25.58816711-57.04059259-57.04059259V380.928c0-31.45242548 25.58816711-57.04059259 57.04059259-57.04059259h262.144c31.45242548 0 57.04059259 25.58816711 57.04059259 57.04059259v262.144c0 31.45242548-25.58816711 57.04059259-57.04059259 57.04059259zM380.928 372.43259259c-4.68461037 0-8.49540741 3.81079703-8.49540741 8.49540741v262.144c0 4.68339675 3.81079703 8.49540741 8.49540741 8.49540741h262.144c4.68339675 0 8.49540741-3.81201067 8.49540741-8.49540741V380.928c0-4.68461037-3.81201067-8.49540741-8.49540741-8.49540741H380.928zM323.88740741 229.19759645c-13.40575289 0-24.27259259-10.8668397-24.27259259-24.2725926V59.29551645c0-13.40575289 10.8668397-24.27259259 24.27259259-24.2725926s24.27259259 10.8668397 24.27259259 24.2725926v145.62827377c0 13.40575289-10.8668397 24.27380622-24.27259259 24.27380623zM449.29539792 229.19759645c-13.40575289 0-24.27259259-10.8668397-24.27259259-24.2725926V59.29551645c0-13.40575289 10.8668397-24.27259259 24.27259259-24.2725926s24.27259259 10.8668397 24.2725926 24.2725926v145.62827377c0 13.40575289-10.8668397 24.27380622-24.2725926 24.27380623zM574.70338845 229.19759645c-13.40575289 0-24.27259259-10.8668397-24.2725926-24.2725926V59.29551645c0-13.40575289 10.8668397-24.27259259 24.2725926-24.2725926s24.27259259 10.8668397 24.27259258 24.2725926v145.62827377c0 13.40575289-10.8668397 24.27380622-24.27259258 24.27380623zM700.11259259 229.19759645c-13.40575289 0-24.27259259-10.8668397-24.27259259-24.2725926V59.29551645c0-13.40575289 10.8668397-24.27259259 24.27259259-24.2725926s24.27259259 10.8668397 24.27259259 24.2725926v145.62827377c0 13.40575289-10.8668397 24.27380622-24.27259259 24.27380623z" p-id="1527"></path><path d="M323.88740741 987.71611497c-13.40575289 0-24.27259259-10.8668397-24.27259259-24.2725926V817.81403497c0-13.40575289 10.8668397-24.27259259 24.27259259-24.2725926s24.27259259 10.8668397 24.27259259 24.2725926v145.62827378c0 13.40575289-10.8668397 24.27380622-24.27259259 24.27380622zM449.29539792 987.71611497c-13.40575289 0-24.27259259-10.8668397-24.27259259-24.2725926V817.81403497c0-13.40575289 10.8668397-24.27259259 24.27259259-24.2725926s24.27259259 10.8668397 24.2725926 24.2725926v145.62827378c0 13.40575289-10.8668397 24.27380622-24.2725926 24.27380622zM574.70338845 987.71611497c-13.40575289 0-24.27259259-10.8668397-24.2725926-24.2725926V817.81403497c0-13.40575289 10.8668397-24.27259259 24.2725926-24.2725926s24.27259259 10.8668397 24.27259258 24.2725926v145.62827378c0 13.40575289-10.8668397 24.27380622-24.27259258 24.27380622zM700.11259259 987.71611497c-13.40575289 0-24.27259259-10.8668397-24.27259259-24.2725926V817.81403497c0-13.40575289 10.8668397-24.27259259 24.27259259-24.2725926s24.27259259 10.8668397 24.27259259 24.2725926v145.62827378c0 13.40575289-10.8668397 24.27380622-24.27259259 24.27380622z" p-id="1528"></path><path d="M205.55487763 723.75409778H59.92660385c-13.40575289 0-24.27259259-10.8668397-24.2725926-24.2725926s10.8668397-24.27259259 24.2725926-24.27259259h145.62827378c13.40575289 0 24.27259259 10.8668397 24.27259259 24.27259259s-10.8668397 24.27259259-24.27259259 24.2725926zM205.55487763 598.34610725H59.92660385c-13.40575289 0-24.27259259-10.8668397-24.2725926-24.27259258s10.8668397-24.27259259 24.2725926-24.27259259h145.62827378c13.40575289 0 24.27259259 10.8668397 24.27259259 24.27259259s-10.8668397 24.27259259-24.27259259 24.27259258zM205.55487763 472.93811675H59.92660385c-13.40575289 0-24.27259259-10.8668397-24.2725926-24.2725926s10.8668397-24.27259259 24.2725926-24.2725926h145.62827378c13.40575289 0 24.27259259 10.8668397 24.27259259 24.2725926s-10.8668397 24.27259259-24.27259259 24.2725926zM205.55487763 347.52891259H59.92660385c-13.40575289 0-24.27259259-10.8668397-24.2725926-24.27259259s10.8668397-24.27259259 24.2725926-24.27259259h145.62827378c13.40575289 0 24.27259259 10.8668397 24.27259259 24.27259259s-10.8668397 24.27259259-24.27259259 24.27259259z" p-id="1529"></path><path d="M964.07339615 723.75409778H818.44512237c-13.40575289 0-24.27259259-10.8668397-24.27259259-24.2725926s10.8668397-24.27259259 24.27259259-24.27259259h145.62827378c13.40575289 0 24.27259259 10.8668397 24.2725926 24.27259259s-10.8668397 24.27259259-24.2725926 24.2725926zM964.07339615 598.34610725H818.44512237c-13.40575289 0-24.27259259-10.8668397-24.27259259-24.27259258s10.8668397-24.27259259 24.27259259-24.27259259h145.62827378c13.40575289 0 24.27259259 10.8668397 24.2725926 24.27259259s-10.8668397 24.27259259-24.2725926 24.27259258zM964.07339615 472.93811675H818.44512237c-13.40575289 0-24.27259259-10.8668397-24.27259259-24.2725926s10.8668397-24.27259259 24.27259259-24.2725926h145.62827378c13.40575289 0 24.27259259 10.8668397 24.2725926 24.2725926s-10.8668397 24.27259259-24.2725926 24.2725926zM964.07339615 347.52891259H818.44512237c-13.40575289 0-24.27259259-10.8668397-24.27259259-24.27259259s10.8668397-24.27259259 24.27259259-24.27259259h145.62827378c13.40575289 0 24.27259259 10.8668397 24.2725926 24.27259259s-10.8668397 24.27259259-24.2725926 24.27259259z" p-id="1530"></path></svg>