<svg t="1709111793602" class="icon" viewBox="0 0 1024 1024" version="1.1" xmlns="http://www.w3.org/2000/svg" p-id="1474" width="200" height="200"><path d="M108.0649984 282.1891488l807.68652267 0c21.10039787 0 38.34767893-17.24728107 38.34767893-38.34767893 0-21.10039787-17.06379947-38.34767893-38.34767893-38.34767894L108.0649984 205.49378987c-21.10039787 0-38.34767893 17.24728107-38.34767893 38.34767893C69.71731947 264.94186667 86.96460053 282.1891488 108.0649984 282.1891488z" p-id="1475"></path><path d="M915.75152 473.74406187L108.0649984 473.74406187c-21.10039787 0-38.34767893 17.24728107-38.34767893 38.34767893 0 21.10039787 17.24728107 38.34767893 38.34767893 38.34767893l807.68652267 0c21.10039787 0 38.34767893-17.24728107 38.34767893-38.34767893C954.09919893 490.99134293 936.85191787 473.74406187 915.75152 473.74406187z" p-id="1476"></path><path d="M915.75152 741.8108512L108.0649984 741.8108512c-21.10039787 0-38.34767893 17.06379947-38.34767893 38.34767893s17.24728107 38.34767893 38.34767893 38.34767894l807.68652267 0c21.10039787 0 38.34767893-17.06379947 38.34767893-38.34767894S936.85191787 741.8108512 915.75152 741.8108512z" p-id="1477"></path></svg>