<svg t="1695365297769" class="icon" viewBox="0 0 1024 1024" version="1.1" xmlns="http://www.w3.org/2000/svg" p-id="2090" width="200" height="200"><path d="M291.27111147 471.04c-6.82666667 0-11.37777813 4.55111147-11.37777814 11.37777813s4.55111147 11.37777813 11.37777814 11.37777707 11.37777813-4.55111147 11.37777706-11.37777707-4.55111147-11.37777813-11.37777706-11.37777813z m521.10222186 170.66666667c-25.03111147-22.7555552-54.61333333-31.85777813-75.09333333-36.40888854-2.2755552-15.92888853-6.82666667-43.2355552-18.2044448-75.09333333-11.37777813-29.58222187-27.30666667-59.1644448-47.78666667-86.47111147-25.03111147-34.13333333-59.1644448-61.44-97.84888853-86.47111146-9.10222187-4.55111147-11.37777813-11.37777813-11.37777813-13.65333334 0-6.82666667 2.2755552-13.65333333 4.55111146-15.92888853 4.55111147-4.55111147 20.48-25.03111147 13.65333334-43.2355552-2.2755552-9.10222187-11.37777813-22.7555552-36.40888854-22.75555627h-2.27555626c-20.48 0-50.06222187 13.65333333-79.64444374 52.33777814-2.2755552 2.2755552-2.2755552 4.55111147-2.27555626 4.55111146s-2.2755552 2.2755552-6.82666667 2.2755552c-11.37777813 2.2755552-27.30666667 6.82666667-52.33777707 13.65333334-65.99111147 20.48-127.43111147 59.1644448-154.73777813 97.84888853-29.58222187 40.96-27.30666667 68.26666667-25.03111147 79.6444448l-6.82666666 6.82666667c-2.2755552 4.55111147-4.55111147 6.82666667-6.82666667 6.82666666-4.55111147 6.82666667-11.37777813 25.03111147-4.5511104 38.6844448 4.55111147 9.10222187 13.65333333 13.65333333 25.0311104 13.65333334 6.82666667 0 15.92888853-2.2755552 25.03111147-6.82666667 45.51111147-22.7555552 84.1955552-38.6844448 104.6755552-47.78666667 6.82666667 9.10222187 15.92888853 15.92888853 25.03111146 22.7555552 15.92888853 9.10222187 31.85777813 15.92888853 45.51111147 15.92888854h6.82666667c22.7555552-2.2755552 27.30666667-15.92888853 29.58222186-22.7555552 2.2755552-11.37777813-2.2755552-22.7555552-13.65333333-31.85777814 18.2044448 2.2755552 43.2355552 4.55111147 75.09333333 9.10222294 34.13333333 4.55111147 70.54222187 22.7555552 102.4 52.33777706 25.03111147 22.7555552 43.2355552 47.78666667 52.33777814 59.1644448 0 0-2.2755552 2.2755552-2.27555627 4.55111147-4.55111147 6.82666667-9.10222187 13.65333333-15.92888853 20.48-9.10222187 11.37777813-15.92888853 20.48-18.2044448 27.30666667 0 2.2755552-13.65333333 29.58222187 0 45.5111104 4.55111147 6.82666667 11.37777813 9.10222187 20.48 9.10222293 13.65333333 0 25.03111147-9.10222187 31.85777813-18.2044448 4.55111147-6.82666667 15.92888853-13.65333333 29.58222187-18.2044448s27.30666667-6.82666667 40.96-6.82666667c6.82666667 0 11.37777813 0 11.37777813 2.27555627 4.55111147 2.2755552 18.2044448 6.82666667 29.58222187 6.82666667 13.65333333 0 22.7555552-6.82666667 27.30666666-15.9288896 4.55111147-18.2044448-13.65333333-34.13333333-22.7555552-43.2355552z m-6.82666666 38.6844448c-6.82666667 0-15.92888853-2.2755552-20.48-4.55111147s-11.37777813-2.2755552-20.48-2.2755552c-15.92888853 0-34.13333333 4.55111147-50.06222187 11.37777707-18.2044448 6.82666667-31.85777813 15.92888853-40.96 27.30666666-6.82666667 11.37777813-11.37777813 11.37777813-13.65333333 11.37777814 0 0-2.2755552 0-2.27555627-2.2755552-2.2755552-4.55111147 0-20.48 2.27555627-27.30666667 2.2755552-4.55111147 9.10222187-13.65333333 15.92888853-22.75555627 6.82666667-6.82666667 13.65333333-15.92888853 18.2044448-25.0311104 4.55111147-6.82666667 6.82666667-13.65333333 6.82666667-18.2044448V625.77777813l-4.55111147-6.82666666c-9.10222187-11.37777813-27.30666667-38.6844448-56.88888853-63.71555627-36.40888853-31.85777813-75.09333333-52.33777813-113.77777814-56.88888853-50.06222187-6.82666667-81.92-11.37777813-97.84888853-11.37777814H420.97777813l-9.10222293 2.27555627 2.27555627 11.37777707s2.2755552 18.2044448 13.65333333 22.75555626c6.82666667 4.55111147 11.37777813 9.10222187 11.37777707 13.65333334 0 2.2755552-6.82666667 4.55111147-11.37777707 4.5511104h-2.27555627c-9.10222187 0-22.7555552-4.55111147-34.13333333-11.37777707-9.10222187-6.82666667-18.2044448-13.65333333-22.7555552-22.75555627l-4.55111147-6.82666666-9.10222186 2.27555626c-20.48 6.82666667-61.44 22.7555552-116.05333334 52.33777707-6.82666667 2.2755552-11.37777813 4.55111147-13.65333333 4.55111147s-4.55111147 0-4.55111147-2.2755552c-2.2755552-4.55111147 0-11.37777813 2.27555627-13.65333334 0-2.2755552 2.2755552-2.2755552 4.5511104-4.55111146 6.82666667-6.82666667 13.65333333-15.92888853 13.65333333-25.03111147 0-11.37777813-2.2755552-31.85777813 22.75555627-65.9911104 25.03111147-36.40888853 81.92-70.54222187 143.36-91.02222293 25.03111147-6.82666667 40.96-11.37777813 52.33777707-13.65333334 6.82666667-2.2755552 11.37777813-2.2755552 13.65333333-4.5511104s4.55111147-9.10222187 9.10222293-13.65333333c22.7555552-31.85777813 45.51111147-43.2355552 61.44-43.23555627 9.10222187 0 15.92888853 6.82666667 15.92888854 9.10222294 2.2755552 2.2755552-2.2755552 11.37777813-9.10222187 18.20444373-4.55111147 4.55111147-11.37777813 20.48-9.10222293 34.13333333 2.2755552 13.65333333 9.10222187 25.03111147 20.48 31.85777814 36.40888853 22.7555552 68.26666667 52.33777813 91.02222293 81.92 20.48 25.03111147 34.13333333 52.33777813 45.5111104 79.6444448 13.65333333 34.13333333 15.92888853 63.7155552 15.9288896 77.36888853v9.10222187h9.10222187c13.65333333 2.2755552 45.51111147 6.82666667 70.54222186 31.85777813 13.65333333 11.37777813 13.65333333 15.92888853 13.65333334 18.2044448 2.2755552 4.55111147 0 6.82666667-2.2755552 6.82666667z m88.74666666-473.31555627L587.09333333 29.58222187c-22.7555552-11.37777813-47.78666667-18.2044448-75.09333333-18.20444374s-52.33777813 6.82666667-75.09333333 18.20444374L129.70666667 207.0755552c-40.96 22.7555552-72.81777813 79.6444448-72.81777814 127.43111147v354.98666666c0 47.78666667 31.85777813 102.4 72.81777814 127.43111147l307.2 177.49333333c20.48 11.37777813 47.78666667 18.2044448 75.09333333 18.20444374s52.33777813-6.82666667 75.09333333-18.20444374l307.2-177.49333333c40.96-25.03111147 72.81777813-79.6444448 72.81777814-127.43111147V334.50666667c0-47.78666667-31.85777813-104.6755552-72.81777814-127.43111147zM921.6 689.49333333c0 31.85777813-25.03111147 72.81777813-52.33777813 88.74666667l-307.2 177.49333333c-11.37777813 6.82666667-29.58222187 11.37777813-50.06222187 11.37777814s-38.6844448-4.55111147-52.33777813-11.37777814L154.73777813 778.24C127.43111147 762.31111147 102.4 721.35111147 102.4 689.49333333V334.50666667c0-31.85777813 25.03111147-72.81777813 52.33777813-88.74666667l307.2-177.49333333c11.37777813-6.82666667 29.58222187-11.37777813 50.06222187-11.37777814s38.6844448 4.55111147 52.33777813 11.37777814l307.2 177.49333333c27.30666667 15.92888853 52.33777813 56.88888853 52.33777707 88.74666667L921.6 689.49333333z" p-id="2091"></path></svg>