<svg t="1695265873713" class="icon" viewBox="0 0 1024 1024" version="1.1"
    xmlns="http://www.w3.org/2000/svg" p-id="1105" width="200" height="200">
    <path d="M564.45155555 215.83644445c45.51111111 0 88.40533333 17.74933333 120.60444445 49.94844444 32.19911111 32.19911111 50.06222222 74.97955555 50.06222222 120.60444444l0.22755556 195.01511112c0 12.62933333 2.95822222 25.25866667 8.64711111 36.63644444L832.17066667 794.16888889c0.56888889 1.13777778 2.27555555 4.55111111-0.34133334 8.87466666s-6.48533333 4.32355555-7.73688888 4.32355556H692.90666667l-112.98133334 0.11377778-135.96444444 0.11377778H370.91555555l-170.21155555 0.11377778h-0.11377778c-1.25155555 0-5.12 0-7.73688889-4.32355556s-0.91022222-7.73688889-0.34133333-8.87466667l88.064-175.90044444c5.68888889-11.37777778 8.64711111-24.12088889 8.64711111-36.75022223L288.99555555 386.84444445c0-45.62488889 17.63555555-88.51911111 49.83466667-120.71822223 32.19911111-32.31288889 75.09333333-50.06222222 120.60444445-50.06222222l104.78933333-0.11377778h0.22755555m0-68.38044444h-0.22755555l-104.78933333 0.11377777C327.45244445 147.79733333 220.61511111 254.86222222 220.72888889 386.84444445l0.22755556 195.0151111c0 2.16177778-0.45511111 4.20977778-1.47911112 6.144l-88.064 175.90044445c-25.71377778 51.42755555 11.60533333 111.95733333 69.17688889 111.95733333h0.11377778l170.32533333-0.11377778c15.92888889 63.03288889 73.04533333 109.68177778 140.97066667 109.68177778 68.03911111 0 125.15555555-46.76266667 141.08444445-109.90933333h-24.68977778H653.08444445l171.12177777-0.11377778c57.45777778 0 94.89066667-60.64355555 69.17688889-112.07111111l-88.17777778-176.128c-0.91022222-1.93422222-1.47911111-3.98222222-1.47911111-6.144l-0.22755555-195.01511111C803.27111111 254.40711111 696.32 147.56977778 564.45155555 147.56977778zM443.96088889 875.86133333l135.96444444-0.11377778c-12.85688889 24.46222222-38.45688889 41.18755555-68.03911111 41.18755556-29.46844445 0-55.06844445-16.72533333-67.92533333-41.07377778H414.15111111h29.80977778z" p-id="1106"></path>
    <path d="M513.024 41.41511111c-63.14666667 0-114.34666667 51.08622222-114.57422222 114.23288889 19.456-5.12 39.82222222-7.85066667 60.87111111-7.96444445h6.94044444c4.89244445-20.59377778 23.43822222-35.95377778 45.62488889-35.95377777 22.07288889 0 40.61866667 15.36 45.62488889 35.95377777h6.82666667c21.84533333 0 43.008 2.95822222 63.14666667 8.41955556v-0.11377778c0-63.26044445-51.2-114.57422222-114.46044445-114.57422222z" p-id="1107"></path>
</svg>