<svg t="1695365250118" class="icon" viewBox="0 0 1024 1024" version="1.1" xmlns="http://www.w3.org/2000/svg" p-id="1641" width="200" height="200"><path d="M627.78026667 147.72906667c-166.02453333 0-304.7424 114.14186667-342.4256 268.6976-3.2768 0-6.5536 0-10.37653334-0.54613334-120.69546667 0-218.45333333 97.75786667-218.45333333 218.45333334 0 57.89013333 22.9376 113.59573333 63.8976 154.0096 40.96 40.96 96.6656 63.8976 154.55573333 63.8976 57.89013333 0 113.59573333-22.9376 154.55573334-64.44373334 34.4064-34.4064 53.52106667-80.2816 58.9824-131.072l-79.18933334-6.00746666c-18.0224-2.18453333-23.48373333-15.83786667-12.56106666-30.03733334l133.80266666-165.4784c10.92266667-14.19946667 25.66826667-12.56106667 32.768 3.82293334l75.91253334 185.68533333c7.09973333 16.93013333-1.6384 28.39893333-19.6608 26.2144l-58.9824-5.46133333c-6.5536 61.71306667-34.4064 115.78026667-73.18186667 158.9248 44.2368 19.11466667 91.7504 28.94506667 140.35626667 28.94506666 194.9696 0 352.80213333-157.83253333 352.80213333-352.80213333 0-194.9696-157.83253333-352.80213333-352.80213333-352.80213333z" p-id="1642"></path></svg>