<?xml version="1.0" standalone="no"?><!DOCTYPE svg PUBLIC "-//W3C//DTD SVG 1.1//EN" "http://www.w3.org/Graphics/SVG/1.1/DTD/svg11.dtd"><svg t="1688630700110" class="icon" viewBox="0 0 1024 1024" version="1.1" xmlns="http://www.w3.org/2000/svg" p-id="1494" xmlns:xlink="http://www.w3.org/1999/xlink" width="200" height="200"><path d="M688.8701 467.779905c-2.327263 2.327263-2.327263 4.654526-2.327264 9.309052a13.963579 13.963579 0 0 0 2.327264 9.309053c2.327263 2.327263 4.654526 2.327263 9.309052 2.327263s6.98179-2.327263 6.98179-4.654526 4.654526-4.654526 4.654526-6.98179a17.6872 17.6872 0 0 0-4.654526-9.309052 19.781737 19.781737 0 0 0-16.290842 0z m174.54474 204.799162a151.504835 151.504835 0 0 1-74.472423 6.981789 502.921579 502.921579 0 0 0 4.654527-100.072318 65.396096 65.396096 0 0 0-2.327263-25.599895c20.945369-30.254422 34.908948-125.672213-2.327264-195.490109-20.945369-39.563475-67.490633-86.108739-167.56295-79.126949a66.327001 66.327001 0 0 1-18.618106-9.309053c-37.236211-18.618106-107.054108-53.527054-155.926635-6.98179a90.530539 90.530539 0 0 0-18.618106 65.16337h-18.618105c-114.035897 0-211.780952 72.145159-211.780952 174.544741a252.973511 252.973511 0 0 0-2.327263 41.890737c-2.327263 48.872527-2.327263 95.417791-46.545264 121.017687a13.2654 13.2654 0 0 0-4.654527 16.290843 12.567221 12.567221 0 0 0 9.309053 6.981789c2.327263 0 4.654526 0 4.654526-2.327263a109.614097 109.614097 0 0 0 55.854317-93.090528 129.628561 129.628561 0 0 0 20.945369 44.218001c6.98179 9.309053 2.327263 60.508843 4.654527 86.108738 2.327263 39.563475 2.327263 46.545264 6.981789 53.527054a97.279602 97.279602 0 0 0 58.18158 13.963579 102.166855 102.166855 0 0 0 44.218001-6.981789c13.963579-6.98179 13.963579-34.908948 11.636316-90.763265 0-9.309053-2.327263-23.272632-2.327263-30.254422 4.654526 2.327263 11.636316 2.327263 16.290843 4.654526a197.584646 197.584646 0 0 0 55.854317 11.636316 428.21643 428.21643 0 0 0 95.417791-9.309052 64.465191 64.465191 0 0 1-2.327263 20.945368c-4.654526 44.218001-6.98179 76.799686 6.98179 90.763265a61.439749 61.439749 0 0 0 44.218 13.96358 98.443234 98.443234 0 0 0 46.545265-11.636316c6.98179-6.98179 9.309053-25.599895 18.618105-121.017687a250.646247 250.646247 0 0 1 4.654527-37.236211c4.654526-20.945369 9.309053-23.272632 20.945369-23.272632 4.654526 11.636316 11.636316 23.272632 16.290842 34.908948 11.636316 25.599895 20.945369 55.854317 11.636316 69.817896-4.654526 6.98179-11.636316 9.309053-25.599895 9.309053s-23.272632 11.636316-23.272632 27.927158 6.98179 34.908948 20.945369 37.236211h16.290842a94.952339 94.952339 0 0 0 69.817896-25.599895 104.261392 104.261392 0 0 0 27.927159-46.545264 122.879497 122.879497 0 0 0 27.927158 2.327263 193.861025 193.861025 0 0 0 60.508843-11.636316 12.101769 12.101769 0 0 0 6.98179-16.290842c-2.327263-6.98179-4.654526-13.963579-11.636316-11.636316z m-123.34495 60.508843a84.246928 84.246928 0 0 1-65.16337 18.618106 57.948854 57.948854 0 0 1-2.327263-18.618106 52.596148 52.596148 0 0 0 46.545264-20.945369 46.545264 46.545264 0 0 0 2.327263-39.563474 124.974034 124.974034 0 0 0 37.236212 23.272632c2.327263 0 2.327263 0 4.654526 2.327263a114.50135 114.50135 0 0 1-23.272632 34.908948z m34.908948-190.835583c-4.654526 6.98179-4.654526 13.963579-2.327263 39.563475a424.725535 424.725535 0 0 1-2.327263 93.090528 146.850308 146.850308 0 0 1-74.472423-79.126949c0-2.327263-2.327263-4.654526-2.327263-6.98179s-4.654526-6.98179-4.654526-9.309053v-2.327263a2.327263 2.327263 0 0 0-2.327264-2.327263h-2.327263a2.327263 2.327263 0 0 1-2.327263-2.327263s-48.872527 2.327263-55.854317 41.890738c0 4.654526-2.327263 20.945369-4.654526 39.563474-2.327263 30.254422-9.309053 88.436002-11.636316 102.399581a113.104992 113.104992 0 0 1-55.854317 0c-6.98179-6.98179-2.327263-51.199791 0-69.817896 2.327263-30.254422 4.654526-39.563475-2.327264-46.545264a10.239958 10.239958 0 0 0-11.636316-2.327263 458.703578 458.703578 0 0 1-102.399581 11.636316 152.203014 152.203014 0 0 1-48.872527-9.309053 142.195782 142.195782 0 0 0-30.254422-6.98179 25.367169 25.367169 0 0 0-11.636316 2.327263c-6.98179 6.98179-6.98179 16.290842-4.654526 53.527054a230.399057 230.399057 0 0 1 0 69.817896 150.573929 150.573929 0 0 1-72.14516-2.327263v-37.236211c-2.327263-48.872527-2.327263-86.108739-11.636316-97.745055-27.927158-37.236211-34.908948-118.690424-34.908948-118.690423 0-100.072318 100.072318-151.272108 188.50832-151.272109h20.945369a271.126164 271.126164 0 0 0 9.309053 34.908948 143.359414 143.359414 0 0 0 130.326739 100.072318 10.542502 10.542502 0 1 0 2.327263-20.945369 122.181318 122.181318 0 0 1-111.708633-83.781475c-16.290842-46.545264-6.98179-93.090528 2.327263-100.072318 37.236211-34.908948 95.417791-6.98179 130.326739 11.636316a103.563213 103.563213 0 0 0 30.254422 11.636316c69.817896-4.654526 121.017687 18.618106 146.617582 67.490633a211.082773 211.082773 0 0 1 2.327263 169.890214z m127.999477-342.107691L588.797782 18.618106a167.795677 167.795677 0 0 0-153.599372 0L121.017877 200.144636A162.908424 162.908424 0 0 0 46.545455 330.471375v363.053061a165.70114 165.70114 0 0 0 74.472422 130.326739l314.180533 181.52653a162.908424 162.908424 0 0 0 76.799686 18.618106 170.12294 170.12294 0 0 0 76.799686-18.618106l314.180533-181.52653a165.70114 165.70114 0 0 0 74.472422-130.326739V330.471375a162.908424 162.908424 0 0 0-74.472422-130.326739zM930.905473 693.524436a120.552234 120.552234 0 0 1-53.527054 90.763265l-314.180533 181.52653a104.028665 104.028665 0 0 1-51.19979 11.636316 121.250413 121.250413 0 0 1-53.527054-11.636316L146.617772 784.287701A120.552234 120.552234 0 0 1 93.090719 693.524436V330.471375a120.552234 120.552234 0 0 1 53.527053-90.763265l314.180533-181.52653A104.028665 104.028665 0 0 1 511.998096 46.545264a121.250413 121.250413 0 0 1 53.527054 11.636316l314.180533 181.52653a120.552234 120.552234 0 0 1 53.527053 90.763265L930.905473 693.524436z" p-id="1495"></path></svg>