<svg t="1709111847719" class="icon" viewBox="0 0 1024 1024" version="1.1" xmlns="http://www.w3.org/2000/svg" p-id="1889" width="200" height="200"><path d="M358.71346906 120.163265H237.71428531A68.57142844 68.57142844 0 0 0 169.14285688 188.73469344v195.9183675A29.38775531 29.38775531 0 0 0 198.53061219 414.04081625h626.93877562a29.38775531 29.38775531 0 0 0 29.38775531-29.38775531v-87.41877563a68.57142844 68.57142844 0 0 0-68.57142843-68.57142844H488.62693906a9.79591875 9.79591875 0 0 1-7.38612281-3.36979593l-70.72653094-81.50204063A68.57142844 68.57142844 0 0 0 358.69387719 120.163265zM237.71428531 178.93877563h120.99918375a9.79591875 9.79591875 0 0 1 7.38612281 3.36979593l70.72653094 81.50204063a68.57142844 68.57142844 0 0 0 51.80081625 23.62775531H786.28571469l1.763265 0.17632594a9.79591875 9.79591875 0 0 1 8.03265281 9.61959187V355.26530656h-568.163265V188.73469344a9.79591875 9.79591875 0 0 1 9.79591781-9.79591781z" p-id="1890"></path><path d="M923.42857156 355.26530656H100.57142844a29.38775531 29.38775531 0 0 0-29.15265281 33.14938688l56.42448937 436.05551062A68.57142844 68.57142844 0 0 0 195.84653094 884.2448975h632.30693812a68.57142844 68.57142844 0 0 0 67.98367406-59.75510156l56.42448938-436.0751025A29.38775531 29.38775531 0 0 0 923.42857156 355.26530656z m-789.43346906 58.77550969h755.99020406l-52.11428625 402.88653094a9.79591875 9.79591875 0 0 1-9.71755125 8.54204062H195.84653094l-1.60653094-0.13714312a9.79591875 9.79591875 0 0 1-8.11102031-8.4048975L133.9951025 414.04081625z" p-id="1891"></path><path d="M629.55102031 482.61224469a29.38775531 29.38775531 0 0 1 2.82122438 58.6383675L629.55102031 541.38775531H394.44897969a29.38775531 29.38775531 0 0 1-2.82122438-58.6383675L394.44897969 482.61224469h235.10204062z" p-id="1892"></path></svg>