<svg t="1695364412089" class="icon" viewBox="0 0 1024 1024" version="1.1" xmlns="http://www.w3.org/2000/svg" p-id="1896" width="200" height="200"><path d="M639.5077728 581.12419733c-16.81387627 0-33.62884373 2.8019488-50.44271893 9.34128427l-15.8795296 5.6049888-7.47259094-14.94627413c-35.49644587-69.12528853-105.55608107-112.09432533-183.087216-112.09432534-113.028672 0-205.50608107 92.47850027-205.50608106 205.50608107l0 21.4845184L155.6329344 694.15286933c-4.67064213-0.93434667-9.34128427-0.93434667-14.01192747-0.93434666-51.3770656 0-93.41175573 42.03578133-93.41175573 93.41175573s42.03578133 93.41175573 93.41175573 93.41175573l497.88676587 0c82.20286933 0 149.45946453-67.2565952 149.45946453-149.45946453C788.96614507 647.44753707 721.70954987 581.12419733 639.5077728 581.12419733z" p-id="1897"></path><path d="M304.15805227 143.9557824l0 224.18865067 671.63269653 0 0-224.18865067C975.7907488 143.9557824 304.15805227 143.9557824 304.15805227 143.9557824zM953.37188373 345.7266592L326.57691733 345.7266592 326.57691733 166.37573867l626.7949664 0L953.37188373 345.7266592z" p-id="1898"></path><path d="M383.55788053 244.84122133l256.88314774 0 0 22.41886507-256.88314774 0 0-22.41886507Z" p-id="1899"></path><path d="M847.81580267 256.05119893m-33.62884374 0a32.86293333 32.86293333 0 1 0 67.2576864 0 32.86293333 32.86293333 0 1 0-67.2576864 0Z" p-id="1900"></path><path d="M847.81580267 512m-33.62884374 0a32.86293333 32.86293333 0 1 0 67.2576864 0 32.86293333 32.86293333 0 1 0-67.2576864 0Z" p-id="1901"></path><path d="M811.38501013 678.2733408l141.98578134 0 0 179.35092053L749.7334048 857.62426133c-13.0775808 9.34128427-28.02385387 16.81387627-43.90338347 22.41886507L974.85640213 880.0431264l0-224.18865067L802.04372587 655.85447467C805.78111253 663.32706667 808.58306133 670.8007488 811.38501013 678.2733408z" p-id="1902"></path><path d="M847.81580267 767.94880107m-33.62884374 0a32.86293333 32.86293333 0 1 0 67.2576864 0 32.86293333 32.86293333 0 1 0-67.2576864 0Z" p-id="1903"></path><path d="M304.15805227 452.21599573c7.47259093-2.8019488 14.94627413-4.67064213 22.41886506-6.53933546L326.57691733 422.32453973l626.7949664 0 0 179.35092054L760.9433824 601.67546027c7.47259093 6.53933547 14.94627413 14.01192747 21.4845184 22.41886506l193.362848 0 0-224.18865066L304.15805227 399.90567467 304.15805227 452.21599573z" p-id="1904"></path><path d="M549.83122133 523.2088864l90.60980694 0 0-22.41886507L528.34670293 500.79002133C535.82038507 508.26370453 543.292976 515.73629547 549.83122133 523.2088864z" p-id="1905"></path></svg>