<svg t="1695364295030" class="icon" viewBox="0 0 1024 1024" version="1.1" xmlns="http://www.w3.org/2000/svg" p-id="1458" width="200" height="200"><path d="M773.12 351.68c-45.6-102.72-148.8-170.4-262.08-170.4-95.04 0-182.88 47.52-235.68 123.84-4.8-0.96-9.6-1.44-14.4-1.44-38.88 0-70.56 30.24-72.96 68.16C94.88 415.04 32 509.12 32 615.68c0 148.32 120.96 269.28 269.28 269.28h419.52c148.32 0 269.28-120.96 269.28-269.28 0-128.64-92.16-239.04-216.96-264zM209.6 429.92c7.68 7.68 16.8 13.44 27.36 16.8 2.4 72.96 22.08 143.52 57.6 206.4-4.8 5.28-8.64 11.04-12 17.28-68.64-23.52-130.08-65.28-177.6-121.44C122.72 497.12 160.64 453.92 209.6 429.92z m91.68 393.6c-110.88 0-201.12-86.88-207.36-196.32C147.2 677.12 212 714.08 281.6 734.72c12 24.48 36.96 41.76 66.24 41.76 12.96 0 25.44-3.36 36-9.12 23.04 21.6 48 40.32 73.92 56.16H301.28z m419.52 0h-42.72c-98.4 0-189.6-41.28-257.76-107.52 0.96-4.32 0.96-8.64 0.96-12.96 0-38.88-30.24-70.56-68.64-72.96-33.12-56.16-52.8-121.44-54.24-190.08 21.12-12.96 35.52-36 35.52-62.88 0-12.96-3.36-24.96-9.12-35.52C366.08 281.12 435.68 243.2 511.04 243.2c93.6 0 178.56 59.04 211.2 146.88l6.72 17.28 18.72 2.4c103.2 13.44 180.96 101.76 180.96 205.92-0.48 114.72-93.6 207.84-207.84 207.84z" p-id="1459"></path></svg>