<svg xmlns="http://www.w3.org/2000/svg" pointer-events="none" class="leaflet-zoom-animated" width="1411" height="1007" viewBox="-118 -84 1411 1007" style="transform: translate3d(-118px, -84px, 0px);"><g><path class="leaflet-interactive" stroke="#201920" stroke-opacity="1" stroke-width="2" stroke-linecap="round" stroke-linejoin="round" fill="none" d="M291 373L290 366L287 363L292 360L291 357L294 352L298 352L301 349L303 349L303 346L306 347L311 344L313 349L319 347L319 349L323 345L324 340L326 338L337 338L336 337L339 336L340 333L345 332L354 326L363 323L365 319L363 313L368 309L366 309L366 307L370 306L370 300L366 292L366 282L363 279L361 280L362 276L366 276L367 274L373 274L381 270L384 273L387 272L390 274L391 271L387 268L387 266L396 240L400 242L401 241L405 244L415 244L418 246L421 243L423 243L426 240L424 224L428 219L436 218L439 212L438 209L440 207L451 207L451 211L449 212L461 225L465 227L470 226L473 230L475 229L477 232L479 232L481 240L486 245L487 248L487 253L485 255L487 259L483 264L483 269L485 273L500 276L513 276L529 287L537 288L536 291L539 295L542 304L548 312L557 311L583 315L598 313L607 315L612 320L619 321L633 327L640 325L640 329L646 330L648 327L674 316L695 317L704 314L710 309L710 307L714 303L721 300L725 296L719 287L720 282L725 275L730 275L734 279L744 281L750 277L754 270L764 270L773 265L777 256L781 254L787 254L786 253L788 250L790 252L797 248L803 249L803 247L806 250L814 250L816 248L814 241L811 240L807 233L802 231L800 227L792 226L787 233L781 229L774 229L770 232L766 228L765 224L769 222L769 218L772 213L771 212L779 195L791 201L801 193L805 193L809 189L807 185L811 179L811 175L814 172L817 163L825 154L823 150L825 146L822 144L817 145L817 141L819 141L820 138L826 132L834 131L841 128L849 129L853 127L865 130L867 133L871 135L874 133L879 135L882 138L881 139L883 139L885 142L884 144L889 148L888 150L890 150L888 152L891 153L891 160L893 162L892 163L894 165L894 169L896 169L895 172L899 178L900 187L903 188L902 195L906 200L916 199L916 201L919 203L924 202L925 205L926 204L929 207L928 208L933 212L938 212L936 216L937 219L939 219L940 222L938 226L942 232L959 232L960 229L963 228L966 224L969 225L978 220L985 221L986 219L988 219L985 222L983 222L982 226L985 232L977 239L978 242L976 244L976 250L974 252L975 255L970 262L970 266L966 269L966 273L964 276L952 271L945 278L944 277L942 279L945 292L945 302L943 308L935 312L937 316L933 312L933 310L929 308L927 316L925 318L923 316L918 323L908 324L911 329L909 333L901 331L900 332L898 330L897 331L897 327L893 327L891 329L891 333L884 340L876 344L873 346L874 347L872 347L866 352M347 468L344 464L343 459L347 457L349 461L353 459L353 454L351 451L352 450L347 446L346 439L350 435L347 432L343 432L341 430L339 418L332 419L322 415L322 413L317 414L318 413L315 410L316 405L314 402L306 397L303 398L303 396L300 397L298 395L303 394M667 595L665 595L665 591L663 589L667 584L661 584L659 582L656 583L652 581L649 577L646 580L644 580L642 584L638 586L636 584L634 588L631 585L629 585L629 587L627 585L623 589L618 585L614 589L610 590L608 588L607 595L609 597L609 605L606 603L603 604L603 600L601 597L596 601L592 601L590 599L591 598L588 597L588 593L580 593L579 592L582 588L581 585L583 581L578 581L576 579L576 573L574 571L576 569L567 568L565 570L561 570L563 568L561 560L564 559L563 556L568 551L568 549L571 550L571 548L574 547L573 544L575 538L574 524L573 525L571 523L571 525L569 523L568 517L566 517L566 515L564 515L563 512L560 513L558 521L555 522L549 517L541 515L536 517L535 520L523 525L519 529L519 531L515 533L504 532L499 534L499 528L498 526L493 524L494 521L491 518L488 519L488 521L484 518L476 516L470 517L469 520L465 523L465 527L463 529L461 526L461 518L455 520L454 519L454 521L442 521L437 518L433 520L432 517L430 519L431 520L429 520L426 515L420 515L419 510L417 512L414 509L412 509L408 502L404 502L405 503L402 504L398 498L393 497L390 493L388 493L385 490L385 488L384 489L378 487L375 492L376 493L374 493L372 489L361 484L358 480L351 480L350 477L347 476L347 468M680 600L674 598L673 599L669 597L669 595L667 595M683 782L682 770M695 664L701 676M706 711L706 717L703 722M723 812L730 811L735 808M766 769L774 760M800 726L805 714M806 667L806 680M816 631L810 643M838 598L830 609M845 576L848 562" id="国界"/><path class="leaflet-interactive" stroke="#201920" stroke-opacity="1" stroke-width="2" stroke-linecap="butt" stroke-linejoin="round" stroke-dasharray="4,4" stroke-dashoffset="4" fill="none" d="M303 394L306 393L306 391L303 388L303 377L300 374L295 373L293 375L291 373" id="争议"/><path class="leaflet-interactive" stroke="gray" stroke-opacity="1" stroke-width="1" stroke-linecap="round" stroke-linejoin="round" stroke-dasharray="8,4,4,4" fill="none" d="M743 592L744 593L743 592M751 588L750 587L746 591L747 593L754 593L753 587L751 588" id="港澳"/><path class="leaflet-interactive" stroke="#4190da" stroke-opacity="1" stroke-width="1" stroke-linecap="round" stroke-linejoin="round" fill="none" d="M749 590L747 590L748 589L744 585L745 588L743 593L742 594L742 592L741 595L739 595L740 596L737 593L736 596L735 595L730 598L727 597L723 600L722 599L711 602L710 604L705 606L709 613L706 616L702 616L699 611L699 605L701 601L698 600L694 602L692 601L692 599L687 598L682 601L682 599L680 600M707 605L707 605M707 605L709 607L705 607L707 605M743 592L743 592M749 590L749 590M749 590L749 590M749 590L749 590M815 536L812 537L814 537L816 540L812 542L813 546L812 549L810 549L812 551L814 549L815 550L813 552L812 551L812 553L812 551L808 551L807 552L809 554L807 554L806 557L807 556L805 556L805 554L805 558L803 558L801 560L803 560L800 563L795 562L795 567L787 575L781 575L780 580L779 579L777 583L773 583L770 585L767 584L765 586L761 584L759 588L756 587L756 585L754 589L752 587L750 589L753 589L751 591L749 590M815 536L815 536M837 505L835 505L837 507L836 510L834 510L836 514L834 516L833 515L830 519L828 519L830 521L827 520L824 524L823 529L819 531L819 533L817 533L818 536L814 538L817 535L815 536M833 400L831 402L826 403L827 406L826 405L823 410L820 411L819 408L818 411L820 411L812 418L812 420L809 423L810 424L807 425L807 427L809 429L810 428L811 431L820 436L825 447L827 457L833 461L833 463L838 468L838 471L830 468L828 470L832 473M832 473L839 479L839 483L841 485L838 482L828 485L836 493L839 493L841 495L837 497L839 499L839 504M833 400L833 400M833 400L833 400M843 363L840 366L840 368L839 367L837 369L836 368L836 370L830 372L829 371L829 369L834 368L834 364L836 364L831 363L830 360L833 359L835 355L837 355L839 351L838 350L840 350L842 346L837 341L828 341L828 343L826 343L822 351L818 353L817 352L811 355L811 357L809 357L809 362L804 367L801 366L799 370L794 365L792 367L792 371L791 370L789 374L791 378L793 377L793 380L800 382L803 381L807 386L808 385L808 387L805 388L804 390L805 393L807 393L809 396L814 395L814 392L816 392L819 389L819 387L825 385L831 389L832 388L834 391L840 389L842 391L847 392L844 397L846 396L845 399L844 398L842 400L838 398L834 401L833 400M833 400L833 400M837 505L837 505M837 505L837 505M837 505L837 505M839 504L837 505M839 504L839 504M841 493L841 493M841 493L841 493M841 493L841 493M843 494L841 493M841 493L839 493L838 491L842 491L843 494M843 494L843 494M843 490L844 489L843 490M843 490L842 489L843 490M843 363L843 363M866 352L866 354L863 357L854 357L843 363M844 483L844 483M844 483L845 484L844 483M846 482L846 482M689 599L689 599M692 606L692 606M696 620L696 620M696 767L701 765L699 765L697 768L696 767M698 641L687 637L687 627L695 620L711 617L714 619L715 623L710 627L708 634L698 641M702 761L703 760L702 761M707 610L707 610M707 605L707 605M708 762L708 762M708 758L709 759L708 758M709 606L707 604L709 604L709 606M709 615L709 615M710 760L710 760M710 607L709 608L710 607M716 669L716 669M719 654L720 653L719 654M719 754L720 753L719 754M720 661L720 661M720 745L720 745M720 765L721 764L720 765M720 762L721 761L720 762M720 661L720 661M721 660L721 660M721 761L722 760L721 761M721 663L721 665L721 663M721 752L721 752M721 660L721 660M722 764L722 764M722 660L722 660M722 664L723 663L722 664M722 661L723 660L722 661M723 666L723 666M724 759L726 759L724 759M725 663L726 662L725 663M725 807L725 807M728 750L728 750M728 750L728 750M728 807L728 807M728 658L728 658M728 670L728 670M728 655L728 655M728 750L729 749L728 750M728 806L728 806M729 749L729 749M729 787L729 787M729 656L729 656M729 657L729 657M730 663L730 663M730 598L731 599L730 598M731 786L731 786M731 667L730 666L732 666L731 667M731 661L732 660L731 661M731 742L731 742M731 787L732 786L731 787M731 785L731 785M731 750L733 750L731 750M732 783L732 783M732 793L732 793M732 599L732 599M732 788L733 789L732 788M732 790L733 789L732 790M733 662L733 662M733 793L733 793M733 598L732 599L733 598M733 663L733 663M734 659L734 659M734 599L734 597L734 599M735 749L735 749M735 599L735 599M735 657L735 657M735 761L736 762L735 761M735 741L736 742L735 741M736 742L736 742M736 794L736 794M736 755L736 755M737 625L737 625M737 740L737 740M737 596L737 596M738 595L738 595M738 596L738 596M739 595L739 595M739 779L739 779M739 759L740 758L739 759M740 758L741 757L740 758M743 593L743 593M743 734L743 734M743 772L743 772M744 748L744 748M744 746L744 746M744 595L744 595M745 671L745 671M745 594L745 594M745 595L745 595M745 595L746 594L745 595M745 764L745 764M746 767L746 767M746 589L746 589M746 593L746 593M746 629L747 628L746 629M746 592L748 590L749 591L746 592M746 736L747 735L747 737L746 736M746 673L746 673M747 670L747 670M747 760L747 760M747 764L753 760L754 761L750 765L747 764M747 750L747 750M747 669L748 668L747 669M748 750L748 750M748 750L749 751L748 750M748 673L748 673M748 736L748 736M749 726L749 726M749 759L750 758L749 759M749 666L750 667L749 666M750 592L749 591L750 592M750 595L750 595M750 744L750 744M750 591L751 592L750 591M750 594L750 594M750 751L750 751M751 666L751 666M751 594L751 594M751 673L751 673M751 734L752 733L751 734M751 739L751 739M751 592L751 592M751 672L751 672M751 740L751 740M751 721L752 720L751 721M752 588L752 588M752 724L752 724M752 590L752 590M752 735L752 735M752 728L752 728M752 720L752 720M753 666L753 666M753 738L753 738M753 671L754 672L753 671M753 738L753 738M753 727L755 727L753 727M754 728L754 728M754 738L754 738M754 758L754 758M754 738L754 738M754 737L754 737M755 721L755 721M755 738L755 738M755 750L756 749L755 750M755 671L755 671M755 737L756 738L755 737M755 720L756 719L755 720M755 589L755 589M756 764L756 764M756 757L756 757M756 733L757 732L756 733M756 720L756 720M756 725L757 724L756 725M756 665L757 664L756 665M756 740L756 740M757 758L757 758M757 723L757 723M757 668L757 668M758 727L758 727M758 768L757 769L758 768M758 760L758 760M758 727L759 726L758 727M759 666L758 667L759 666M759 765L760 766L759 765M759 724L759 724M761 755L763 755L761 755M762 754L762 754M763 734L763 734M764 691L764 691M764 744L765 743L764 744M765 738L765 738M765 754L765 754M767 731L767 731M768 730L768 730M768 731L768 731M768 731L768 731M768 730L769 731L768 730M769 740L770 739L770 741L769 740M769 727L769 727M770 607L770 607M770 605L772 606L770 605M771 744L770 745L771 744M771 736L772 735L771 736M773 741L773 741M774 750L775 749L774 750M776 739L776 739M776 746L776 746M776 739L776 739M776 732L778 732L776 732M777 740L777 740M778 731L778 731M779 662L779 662M779 719L780 720L779 719M779 610L779 610M779 748L779 748M780 609L781 612L779 611L781 611L780 609M780 731L780 731M784 576L782 576L784 576M784 730L784 730M785 728L785 728M785 733L785 733M785 729L787 729L785 729M786 724L785 725L786 724M786 736L786 736M787 724L787 724M789 729L789 729M790 725L790 725M790 676L792 677L790 676M791 728L792 727L791 728M794 564L794 564M795 564L794 563L796 563L795 564M796 565L797 564L796 565M798 563L799 564L797 565L798 563M801 368L801 368M803 366L803 366M803 366L804 367L803 366M810 579L810 579M810 555L812 555L810 555M811 577L811 577M811 574L811 574M811 574L811 574M812 549L812 549M812 543L812 543M812 575L811 576L812 575M812 549L812 549M813 549L813 549M813 537L812 536L814 536L813 537M813 553L813 553M813 553L813 553M814 537L814 537M815 550L815 550M816 543L815 542L816 543M816 545L816 545M816 576L817 575L816 576M816 542L816 542M817 538L817 538M818 538L818 538M818 537L818 537M818 534L818 534M818 415L818 415M820 533L820 533M820 590L820 590M820 533L821 532L820 533M821 386L821 386M822 540L822 540M823 384L824 383L823 384M824 595L823 590L819 587L817 581L817 573L828 557L834 553L838 555L838 563L835 568L832 582L827 588L826 596L824 595M824 383L824 383M825 384L825 384M825 381L825 381M825 347L826 346L825 347M825 379L826 378L825 379M827 377L827 377M827 378L827 378M828 406L827 405L828 406M828 519L828 519M828 526L828 526M829 520L828 519L829 520M830 519L830 519M832 469L839 473L834 473L830 470L831 468L832 469M833 459L833 459M833 586L834 587L833 586M834 593L835 594L834 593M835 595L835 595M835 474L834 473L835 474M836 505L836 505M836 510L836 510M837 476L834 474L836 474L837 476M837 475L840 476L837 475M837 492L837 492M837 509L838 508L837 509M837 509L837 509M838 513L838 513M838 492L837 493L838 492M838 476L838 476M838 513L838 513M838 552L838 552M838 559L838 559M838 491L839 492L838 491M838 477L839 478L838 477M839 489L839 489M839 504L839 504M840 496L839 497L840 496M840 494L840 494M840 491L839 490L840 491M840 485L840 485M840 494L840 494M840 493L840 493M840 493L840 493M841 493L841 493M841 490L841 490M841 489L842 490L841 489M841 490L841 490M841 501L841 501M841 497L840 496L841 497M841 497L841 497M842 494L841 493L842 494M842 495L843 496L842 495M842 495L843 494L842 495M842 497L841 496L843 496L842 497M843 494L844 495L843 494M843 366L843 366M844 493L844 493M844 488L843 487L844 488M845 487L845 487M845 365L845 365M846 364L847 365L846 364M846 484L846 484M847 365L847 365M848 491L848 491M848 368L848 368M848 484L848 484M849 484L848 483L849 484M851 360L850 361L851 360M851 362L851 362M852 368L853 367L852 368M854 548L857 549L853 549L854 548M857 547L857 547M857 545L859 545L857 545M857 550L858 549L857 550M857 548L857 548M858 549L858 549M859 357L859 357M867 545L869 545L867 545" id="海洋"/><path class="leaflet-interactive" stroke="#747569" stroke-opacity="0.6" stroke-width="1" stroke-linecap="round" stroke-linejoin="round" fill="none" d="M472 410L459 405L447 407L445 405L443 407L433 409L430 414L425 416L421 414L414 417L411 420L402 421L397 420L395 416L392 417L389 415L388 418L386 418L384 420L385 421L382 422L374 420L364 421L365 422L361 426L362 427L360 427L360 431L358 433L351 433L350 435M563 459L560 458L559 463L558 462L556 466L552 466L552 471L549 470L548 467L546 467L545 472L545 470L543 469L541 471L539 469L538 470L536 466L537 465L534 462L533 463L535 461L531 461L527 457L524 460L515 460L509 456L501 457L492 451L488 452L479 449L478 447L476 447L476 445L471 439L474 435L472 431L473 426L470 427L469 421L473 415L468 412L472 410M502 368L488 373L482 373L476 377L479 380L480 378L481 387L483 387L489 393L490 396L483 400L483 402L487 404L488 409L486 411L476 408L472 410M609 446L607 446L606 443L603 444L602 441L599 440L598 435L599 434L606 436L608 438L611 438L612 435L614 435L614 433L611 432L611 428L616 423L615 419L616 420L617 417L621 417L619 415L621 413L622 414L622 410L624 408L621 407L621 405L618 402L620 400L617 397L619 395L612 389L612 387L609 388L606 385L604 386L601 383L599 383L597 379L593 379L589 375L591 379L590 380L575 367L573 369L570 368L567 372L556 365L554 367L555 374L551 376L551 380L548 379L546 381L540 377L538 379L534 377L527 378L525 372L520 373L518 371L519 370L512 370L511 366L502 368M548 312L543 316L545 323L542 326L538 327L535 330L533 327L529 331L527 331L518 340L518 344L508 345L506 359L502 365L502 368M638 391L636 391L631 386L627 385L629 379L628 378L633 374L634 370L637 369L635 362L628 363L623 367L617 365L613 366L610 367L612 371L609 373L604 372L602 369L603 368L600 369L598 367L598 362L594 363L592 359L585 355L582 355L591 350L592 344L589 340L579 341L579 343L577 342L575 343L575 345L574 342L572 342L573 344L570 345L570 340L562 332L564 329L557 311M579 503L577 497L577 483L573 477L573 475L576 475L572 471L571 466L568 462L563 459M609 446L607 452L604 449L601 450L603 456L601 458L596 459L593 456L591 458L587 452L586 457L577 452L570 438L566 438L565 436L562 437L563 438L559 442L559 445L563 447L560 451L561 452L559 456L563 459M568 517L569 514L571 518L574 515L573 506L575 506L576 509L578 505L577 504L579 503M649 523L648 518L641 521L638 518L640 516L637 514L638 511L633 510L633 514L628 517L628 522L624 527L622 526L621 531L624 538L620 542L618 540L613 544L608 541L607 542L608 541L605 538L606 535L604 535L605 534L600 528L598 522L596 520L593 521L593 523L591 521L589 517L591 515L586 510L586 508L584 508L582 516L579 513L579 503M651 454L649 458L643 458L641 456L640 457L637 454L639 453L639 449L636 446L636 444L628 442L627 443L621 435L618 438L616 438L616 440L613 439L617 446L614 447L613 450L610 451L609 450L611 447L609 446M676 385L673 384L672 381L663 379L668 369L666 363L664 363L661 364L656 371L656 379L654 381L654 386L638 391M638 391L642 391L641 394L648 397L648 403L651 407L649 411L650 413L661 422L663 420L662 415L665 416L668 411L667 408L662 407L663 406L661 403L663 403L665 395L671 396M649 523L648 527L647 526L645 528L641 528L639 526L635 528L635 526L630 530L630 532L632 532L631 536L633 538L639 536L642 539L640 541L641 542L639 544L640 545L638 549L640 551L641 550L640 551L644 555L643 554L641 556L642 557L640 560M640 560L642 566L642 564L646 564L649 569L658 568L659 575L654 576L652 580M697 544L695 548L690 548L692 548L691 551L689 549L687 553L684 550L681 553L681 555L678 556L674 554L671 550L669 550L669 554L660 557L657 562L648 557L643 562L640 560M661 512L657 509L653 513L653 515L661 519L660 522L649 523M671 396L672 399L677 400L681 404L682 403L687 406L687 420L685 422L678 421L676 423L678 425L676 427L664 424L664 428L661 431L665 435L663 435L664 437L662 439L664 444L662 446L662 444L658 444L654 448L657 451L656 454L651 454M686 464L678 464L673 459L671 461L669 459L670 458L666 456L662 458L655 455L653 457L651 454M694 513L692 517L689 516L689 514L686 513L686 510L684 510L683 505L679 506L674 503L673 508L671 509L671 507L669 507L665 513L662 508L663 511L661 512M661 512L659 507L654 506L654 502L650 502L651 501L649 499L654 494L654 492L652 491L655 488L657 488L659 490L664 489L666 493L669 492L674 485L673 483L677 481L678 482L680 480L680 476L682 475L682 473L686 471L686 469L683 468L683 466L685 466L684 464L686 464M671 396L673 387L676 385M715 363L716 360L714 360L710 364L706 362L704 362L705 363L703 365L701 364L702 367L700 367L699 370L692 376L692 383L691 384L689 382L689 388L681 388L678 385L676 385M686 464L689 465L694 470L698 470M698 470L700 470L699 471L704 474L704 482L701 481L696 486L693 486L693 484L691 484L689 486L688 485L684 487L686 489L686 495L684 495L686 497L686 495L688 495L691 501L690 502L691 501L694 504M694 504L694 513M747 505L744 504L745 499L743 496L738 500L736 500L736 496L734 496L734 498L733 497L729 499L725 495L718 494L713 491L708 492L710 496L709 497L701 496L697 498L694 504M697 544L697 542L694 541L696 537L695 536L697 534L696 533L698 532L696 530L692 530L690 532L689 531L697 524L695 522L696 515L694 515L694 513M726 560L722 560L720 562L718 555L714 558L713 557L720 546L716 545L717 542L715 540L709 540L709 542L706 545L703 544L703 542L700 545L701 546L697 544M714 449L711 452L709 450L706 451L698 449L696 451L700 452L700 454L702 454L705 457L703 459L698 458L698 470M700 601L699 601M700 601L702 596L707 595L706 592L711 591L711 587L718 584L718 576L724 570L726 566L724 562L726 560M701 617L703 617M704 617L707 616M707 431L705 430L705 426L710 417L708 413L707 398L712 389L708 383L708 380L713 375L714 368L717 364L715 363M707 431L707 435L710 438L709 441L712 442L714 449M707 431L720 428L724 424L726 424L726 422L733 423L741 419L744 416L743 415L745 411L745 406M708 616L709 615M764 474L763 475L762 472L758 474L754 472L754 469L751 470L750 468L748 470L748 468L745 467L745 461L741 463L739 461L728 462L725 459L724 460L720 458L714 449M714 450L714 450M750 343L749 346L744 347L742 349L740 349L740 347L737 348L735 351L731 349L726 354L723 360L720 359L715 363M726 560L727 555L733 555L733 557L736 558L737 554L735 554L738 551L742 553L747 552M765 409L761 409L759 411L757 409L745 406M745 406L742 402L746 398L745 395L750 388L745 380L743 380L743 376L746 372L745 369L748 366L750 368L755 360L752 356L750 356L751 355L747 353L754 349L751 347L750 343M772 495L770 497L765 495L763 498L762 497L759 500L758 499L758 501L752 501L747 505M747 552L748 545L749 543L751 543L748 542L749 537L746 536L747 527L744 528L743 525L746 519L748 519L748 517L751 514L749 512L750 509L747 505M747 552L748 551L748 554L754 552L756 554L756 556L752 558L753 559L751 561L753 563L762 560L769 563L768 559L770 558M808 334L798 334L795 328L795 326L797 326L797 322L796 323L793 320L794 317L791 314L787 314L787 316L783 316L781 318L780 324L777 325L775 323L771 327L770 324L766 326L763 329L764 330L758 330L758 322L754 321L754 323L750 327L751 330L747 332L748 335L746 337L750 343M773 431L773 433L776 436L777 435L778 440L773 443L771 439L768 438L766 440L767 445L763 447L763 451L758 452L763 459L767 461L769 459L770 460L770 468L768 470L767 469L764 472L764 474M772 495L772 491L768 484L771 480L764 474M792 379L791 382L789 382L787 385L779 386L776 390L775 389L773 391L774 392L772 392L769 395L770 396L763 403L765 409M773 431L765 431L765 429L763 427L762 428L761 425L757 425L759 421L761 419L762 420L764 416L767 415L772 410L764 414L763 412L765 409M770 558L769 555L771 553L771 549L773 547L772 546L774 546L776 544L775 541L777 539L778 540L777 533L784 529L784 525L782 525L782 523L783 524L788 519L791 522L791 520L797 518L798 515M784 575L781 568L781 564L779 562L780 561L777 562L775 560L776 559L773 560L774 559L770 558M796 501L794 499L790 499L785 494L783 496L784 497L780 499L778 497L781 494L779 492L774 496L772 495M775 430L773 431M808 425L804 425L803 428L801 430L800 429L797 434L795 434L795 430L791 430L791 432L788 433L786 431L784 433L781 426L776 427L775 430M812 478L808 476L803 477L802 476L804 473L800 469L799 470L798 467L798 465L801 464L802 461L800 459L801 458L806 460L807 455L804 453L802 457L798 457L796 455L796 451L793 450L796 443L790 443L790 439L784 438L780 433L778 433L775 430M787 350L785 348L787 344L782 343L779 340L779 338L775 340L776 342L768 346L770 351L764 354L766 356L765 359L769 361L774 360L774 362L776 362L775 361L777 359L780 359M789 374L786 375L779 372L779 368L781 368L780 359M781 358L780 359M781 358L784 359L785 352M785 352L779 354L782 357L781 358M784 575L785 576M787 350L785 352M786 577L787 578M787 350L791 352L791 354L789 354L788 357L790 361L793 360L792 363L794 365M796 501L804 494L804 488L810 488L808 486L812 482L812 478M796 501L794 505L798 509L798 515M822 530L818 526L814 528L811 523L808 526L804 526L804 522L802 520L803 517L801 515L798 515M808 334L810 331L808 329L808 319L811 318L815 320L816 326L818 328L818 326L824 320L828 320L832 316L835 317L840 312L843 313L844 310L846 312L853 311L852 310L854 308L858 307L858 302M815 354L813 352L812 347L807 345L807 343L806 344L803 341L808 334M827 479L824 480L824 482L822 483L820 481L821 480L818 481L814 477L812 478M824 531L825 532M826 377L829 377M839 471L833 470L831 468L829 470L832 472L829 475L830 476L826 478L827 479M831 484L827 479M832 484L834 484M855 244L854 247L853 246L852 248L850 248L848 244L849 243L846 242L844 238L864 218L866 220L865 221L867 225L868 224L868 216L871 207L876 206L876 190L878 190L877 189L879 185L883 182L882 179L885 176L885 174L879 165L874 162L874 164L870 168L867 167L867 169L861 169L859 167L854 170L851 168L850 169L846 155L848 151L846 151L841 146L838 151L830 144L835 140L837 136L833 131M834 484L835 484M837 483L838 483M839 482L841 482M843 481L845 481M847 481L848 480M945 300L940 301L937 298L935 298L934 293L930 295L929 292L923 296L922 295L921 298L917 300L913 290L913 286L911 284L910 287L908 287L909 289L905 291L901 285L902 284L900 282L896 282L897 277L895 274L891 272L885 274L881 271L880 268L878 270L874 270L874 268L868 270L862 264L863 263L861 261L861 255L855 257L852 256M852 256L850 251L858 248L858 246L857 245L857 247L855 244M852 256L851 259L848 259L848 265L846 265L843 261L842 264L838 260L836 260L837 261L835 264L839 266L842 273L840 275L840 283L843 289L845 289L851 284L854 288L854 292L857 298L854 299L854 301L858 302M855 244L855 244M855 244L855 244M855 244L855 244M858 302L859 301L862 304L863 303L867 310L871 306L872 307L871 308L876 318L875 319L879 321L877 323L877 329L879 329L879 333L882 336L880 340L881 341M656 420L657 419L656 420M697 535L697 535M736 496L736 496" id="省界"/><path class="leaflet-interactive" stroke="#3388ff" stroke-opacity="0" stroke-width="3" stroke-linecap="round" stroke-linejoin="round" fill="#eee" fill-opacity="0.5" fill-rule="evenodd" d="M786 345L788 344L781 343L779 338L776 339L776 341L768 346L770 349L764 354L766 356L765 359L769 361L774 360L775 362L778 359L779 360L782 357L779 354L784 353L787 350L785 348L786 345z" id="北京市"/><path class="leaflet-interactive" stroke="#3388ff" stroke-opacity="0" stroke-width="3" stroke-linecap="round" stroke-linejoin="round" fill="#eee" fill-opacity="0.5" fill-rule="evenodd" d="M791 363L793 361L790 361L788 357L788 355L791 354L791 352L788 350L784 353L784 359L780 359L781 368L779 368L779 372L786 375L789 374L791 372L790 371L792 371L792 367L794 365L792 363L788 363L790 362zM791 363L792 362L791 363z" id="天津市"/><path class="leaflet-interactive" stroke="#3388ff" stroke-opacity="0" stroke-width="3" stroke-linecap="round" stroke-linejoin="round" fill="#eee" fill-opacity="0.5" fill-rule="evenodd" d="M788 344L785 345L785 349L791 353L788 354L790 359L789 360L793 360L792 363L799 370L801 366L804 367L809 362L808 361L810 356L815 353L812 350L811 346L808 346L807 343L806 344L803 341L808 334L798 334L795 328L796 326L797 327L797 323L795 323L794 318L790 314L782 316L780 324L777 325L775 323L771 327L769 324L763 329L764 330L758 330L758 322L754 321L754 323L750 327L751 330L747 331L747 337L751 347L754 348L748 353L749 355L753 356L754 362L750 368L747 367L746 373L743 375L743 379L747 382L750 388L745 395L746 399L742 401L743 405L749 408L753 408L755 410L758 409L758 411L761 408L763 410L765 409L763 404L769 398L768 397L771 392L773 392L774 389L776 391L780 385L787 385L791 381L793 378L791 378L788 374L786 375L779 372L779 368L781 368L780 359L778 359L775 362L773 360L768 361L766 359L765 360L766 356L764 354L770 350L768 345L776 342L776 339L779 338L779 340L782 343L788 344zM785 352L779 354L782 357L782 359L784 359L784 353zM791 363L788 363L791 363zM803 366L803 367z" id="河北省"/><path class="leaflet-interactive" stroke="#3388ff" stroke-opacity="0" stroke-width="3" stroke-linecap="round" stroke-linejoin="round" fill="#eee" fill-opacity="0.5" fill-rule="evenodd" d="M707 431L720 428L723 425L726 425L727 422L734 423L744 416L743 415L745 411L745 405L743 405L742 402L745 399L745 396L750 388L746 381L743 380L743 376L746 372L745 369L749 366L749 368L751 367L755 360L747 353L754 349L751 347L749 343L747 347L746 346L742 349L738 348L735 351L731 349L729 350L723 360L720 359L715 363L716 366L713 375L708 380L712 388L710 394L707 397L709 418L705 427L706 431z" id="山西省"/><path class="leaflet-interactive" stroke="#3388ff" stroke-opacity="0" stroke-width="3" stroke-linecap="round" stroke-linejoin="round" fill="#eee" fill-opacity="0.5" fill-rule="evenodd" d="M557 311L564 329L562 331L569 340L570 345L573 344L574 342L575 345L575 343L577 342L579 344L579 342L589 340L592 344L591 350L583 355L592 358L594 363L597 362L599 367L598 368L603 368L602 369L605 372L609 373L612 370L610 367L616 365L622 367L628 363L635 362L637 369L633 374L628 377L629 381L627 382L628 385L635 391L653 387L655 385L654 381L656 379L655 376L658 367L664 363L666 363L668 368L663 378L664 380L671 381L674 384L680 386L680 388L689 388L689 382L691 384L692 383L690 380L702 366L701 365L705 364L705 362L707 364L711 364L714 360L716 360L715 363L718 362L719 359L723 360L725 358L727 352L730 349L735 351L737 348L741 349L749 345L749 341L746 337L748 335L747 332L751 331L750 327L754 323L754 321L757 322L759 325L758 330L764 330L763 329L769 324L772 327L775 323L777 325L780 324L781 318L783 316L791 314L794 317L793 320L795 321L795 323L797 323L797 327L795 327L797 332L802 334L808 334L810 332L808 329L808 321L810 318L812 320L815 320L814 321L817 328L826 319L829 320L832 316L835 317L840 312L843 313L843 311L847 311L849 313L853 310L853 308L858 307L858 302L854 300L856 300L856 296L852 284L847 288L842 288L842 284L840 282L840 274L842 272L839 266L835 264L837 262L836 260L838 260L841 263L844 262L847 265L849 262L848 259L852 258L850 251L858 248L856 244L854 244L854 247L853 246L852 248L850 248L848 244L849 243L844 239L845 235L853 230L865 218L867 225L868 224L868 218L871 207L876 206L875 193L877 191L876 190L878 190L877 189L879 185L883 182L882 179L885 176L885 172L883 172L879 165L874 162L874 164L870 168L868 167L866 169L861 169L859 167L854 170L851 168L849 166L846 155L848 151L841 147L837 151L830 144L835 140L837 136L836 134L833 131L827 132L817 142L818 145L822 144L824 146L823 149L825 151L825 156L817 163L815 167L816 168L811 175L811 179L807 185L809 189L805 193L801 193L791 201L779 195L771 212L772 213L769 217L769 222L765 224L766 228L770 232L774 229L780 229L787 233L792 226L799 227L814 241L816 247L813 250L807 250L804 247L801 249L798 248L791 252L788 250L786 254L777 255L774 263L767 269L755 270L752 275L744 281L735 279L730 275L725 275L719 285L720 290L724 293L725 297L714 303L707 312L694 317L674 316L654 324L648 327L646 330L640 329L640 325L633 327L620 321L613 320L607 315L599 313L583 315L564 313L558 311z" id="内蒙古自治区"/><path class="leaflet-interactive" stroke="#3388ff" stroke-opacity="0" stroke-width="3" stroke-linecap="round" stroke-linejoin="round" fill="#eee" fill-opacity="0.5" fill-rule="evenodd" d="M857 357L864 357L864 355L872 346L873 347L881 341L880 340L882 335L877 328L877 324L879 321L875 319L876 318L874 316L872 306L869 308L869 310L867 310L866 306L862 304L860 300L858 302L857 308L853 308L851 312L844 311L844 313L838 313L836 317L833 316L828 320L827 319L823 321L818 326L818 328L815 324L815 320L811 318L808 320L808 329L810 330L810 332L808 333L804 341L806 344L807 343L808 346L811 345L812 349L816 354L822 350L826 343L828 343L827 342L830 341L837 340L839 344L841 344L842 346L840 348L841 349L838 350L838 353L830 361L833 364L836 363L834 365L835 366L829 370L829 372L834 371L835 368L838 369L837 368L839 368L841 366L840 365L844 362L856 357zM846 364L846 364zM843 366L844 365L843 366zM847 365L847 365zM847 368L848 368zM851 360L851 361zM845 365L845 365zM825 347L826 346L825 347zM851 362L851 362zM852 368L853 367L852 368zM859 357L859 357z" id="辽宁省"/><path class="leaflet-interactive" stroke="#3388ff" stroke-opacity="0" stroke-width="3" stroke-linecap="round" stroke-linejoin="round" fill="#eee" fill-opacity="0.5" fill-rule="evenodd" d="M926 317L928 314L928 310L930 308L932 308L931 309L933 313L935 315L936 314L937 317L937 313L935 313L936 311L943 309L945 301L940 301L937 298L935 298L934 293L930 295L929 292L923 296L922 295L921 298L917 300L916 295L912 289L912 285L910 285L908 288L909 289L905 291L901 285L902 284L900 282L896 282L896 274L891 272L888 274L883 273L880 268L878 270L874 270L874 268L868 270L862 264L863 263L861 261L861 255L853 256L848 259L848 265L846 265L844 262L841 263L838 260L836 260L837 261L835 264L839 266L842 273L840 275L840 283L842 284L842 288L845 289L852 284L857 298L854 299L855 301L858 302L860 300L860 302L867 307L866 310L869 310L869 308L871 306L872 307L871 308L873 314L877 320L876 321L878 321L877 328L882 335L880 340L881 341L883 341L889 335L891 330L895 326L898 330L897 331L898 330L900 332L901 331L908 333L911 331L908 324L918 323L923 317L925 317z" id="吉林省"/><path class="leaflet-interactive" stroke="#3388ff" stroke-opacity="0" stroke-width="3" stroke-linecap="round" stroke-linejoin="round" fill="#eee" fill-opacity="0.5" fill-rule="evenodd" d="M857 257L860 255L862 257L862 263L868 270L872 268L874 268L874 270L878 270L880 268L883 273L888 274L891 272L896 274L896 282L902 283L901 284L905 291L907 291L912 284L912 289L916 294L917 300L919 300L922 295L923 296L929 292L930 295L934 292L934 296L937 299L940 301L945 301L945 292L943 281L941 279L943 277L947 277L949 273L951 273L951 271L965 276L966 269L970 265L973 259L972 258L975 255L974 252L976 249L978 241L977 240L984 232L982 227L983 222L988 220L978 220L970 225L966 225L962 228L961 227L959 232L941 232L938 226L939 218L937 219L936 216L938 212L933 212L927 206L927 204L925 204L925 202L920 203L914 199L906 200L902 195L903 188L900 186L899 178L895 173L896 169L894 169L895 168L890 157L890 151L888 150L889 149L886 145L884 145L886 142L884 142L882 139L881 140L882 138L879 135L875 133L872 135L867 133L865 130L863 131L857 127L848 129L841 128L834 131L837 136L830 145L837 151L841 147L848 151L846 155L849 167L854 170L859 167L861 169L867 169L867 167L869 168L873 166L872 165L874 165L875 162L880 166L883 172L885 172L885 176L882 179L883 182L876 191L876 206L871 207L868 217L868 225L865 221L866 220L863 219L852 231L846 234L844 238L848 243L849 242L848 244L850 248L852 248L855 245L854 244L856 244L857 247L857 245L858 246L857 249L851 251L852 255L857 257z" id="黑龙江省"/><path class="leaflet-interactive" stroke="#3388ff" stroke-opacity="0" stroke-width="3" stroke-linecap="round" stroke-linejoin="round" fill="#eee" fill-opacity="0.5" fill-rule="evenodd" d="M827 479L828 482L832 484L838 482L839 480L832 473L829 474L829 478L826 478zM839 471L833 470L831 468L829 470L837 474L839 473zM837 475L834 474L837 476zM837 475L840 476L837 475zM835 474L834 473zM838 477L839 477zM838 477L838 477z" id="上海市"/><path class="leaflet-interactive" stroke="#3388ff" stroke-opacity="0" stroke-width="3" stroke-linecap="round" stroke-linejoin="round" fill="#eee" fill-opacity="0.5" fill-rule="evenodd" d="M786 431L784 433L781 426L775 427L775 429L780 434L782 434L782 437L787 439L788 438L791 441L791 443L795 443L793 449L794 451L796 450L796 454L799 457L802 457L804 453L808 458L806 460L804 458L800 458L802 462L798 465L798 467L804 472L802 475L803 477L815 477L818 481L821 480L820 481L822 483L827 479L826 478L828 478L828 476L832 472L829 470L831 468L833 470L839 471L838 468L833 464L833 461L827 457L827 453L820 435L810 430L811 429L807 427L807 424L804 425L803 428L801 430L800 429L797 434L794 431L795 430L791 430L791 432L788 433L786 431z" id="江苏省"/><path class="leaflet-interactive" stroke="#3388ff" stroke-opacity="0" stroke-width="3" stroke-linecap="round" stroke-linejoin="round" fill="#eee" fill-opacity="0.5" fill-rule="evenodd" d="M799 515L803 517L802 520L804 522L804 526L808 526L812 523L814 528L818 526L822 530L824 527L824 523L830 520L828 520L828 518L829 517L829 519L834 515L835 516L834 511L837 508L835 505L839 505L838 497L841 494L835 492L832 488L830 488L828 485L831 484L827 479L824 480L824 482L822 483L820 481L821 480L818 481L815 477L813 477L811 481L812 482L808 486L810 488L804 488L804 494L794 503L799 515zM841 493L843 493L839 490L838 491L840 493zM842 490L841 491zM842 497L842 497zM844 483L845 484L844 483zM841 489L842 490L841 488zM843 490L843 489zM839 504L840 503zM843 494L844 495L843 494zM844 488L843 487zM837 509L838 508zM842 495L843 495zM837 505L837 505zM830 524L830 524zM838 483L840 485L839 482zM838 513L838 512zM841 497L840 496L841 497zM844 494L844 494zM846 484L845 484zM838 513L838 513zM840 491L839 491zM844 493L843 493zM837 493L838 492L837 493zM828 526L828 526zM839 504L839 503zM840 496L839 497zM838 491L839 492zM839 489L838 489zM841 493L841 493zM842 497L842 496zM829 522L829 522zM848 491L848 491zM842 489L843 489zM842 495L843 494zM848 484L848 483zM829 520L828 520zM830 519L830 519zM844 493L844 493zM849 484L848 483zM841 493L842 493zM839 493L840 493zM828 519L829 519zM844 494L844 494zM841 493L841 493z" id="浙江省"/><path class="leaflet-interactive" stroke="#3388ff" stroke-opacity="0" stroke-width="3" stroke-linecap="round" stroke-linejoin="round" fill="#eee" fill-opacity="0.5" fill-rule="evenodd" d="M778 439L778 441L777 440L774 443L772 443L771 440L767 438L767 445L763 447L763 451L758 452L763 459L766 461L769 459L770 461L770 468L767 469L764 472L764 474L766 477L772 480L768 483L774 496L777 492L779 492L781 494L778 497L780 499L785 494L790 499L794 498L795 501L802 496L804 493L804 489L809 488L808 485L812 481L812 479L809 476L803 476L803 471L801 471L802 470L800 470L798 467L798 465L801 464L801 458L804 458L805 460L807 460L808 458L805 453L803 453L802 456L798 457L796 455L796 451L793 450L795 442L790 443L791 441L788 438L784 438L780 433L778 433L775 430L773 434L775 436L777 435L778 439zM803 473L804 473zM779 497L779 497zM765 460L765 460z" id="安徽省"/><path class="leaflet-interactive" stroke="#3388ff" stroke-opacity="0" stroke-width="3" stroke-linecap="round" stroke-linejoin="round" fill="#eee" fill-opacity="0.5" fill-rule="evenodd" d="M805 557L804 554L806 554L806 556L806 554L809 555L809 553L807 552L808 551L812 551L812 553L815 550L814 549L812 551L810 549L813 544L812 543L815 540L814 537L812 537L813 535L814 536L817 534L816 537L814 538L818 535L817 534L821 530L821 528L819 526L815 528L811 523L809 526L803 525L803 517L799 515L795 519L791 521L789 521L789 519L786 520L786 522L782 524L784 528L781 532L777 534L778 540L777 539L775 541L776 542L772 547L769 556L772 559L776 559L775 560L777 562L780 561L779 562L781 564L782 571L786 575L795 567L795 563L800 563L803 560L801 559L805 558zM798 563L797 564L799 563zM810 555L811 554L810 555zM812 549L812 549zM816 542L816 542zM796 565L796 564zM815 536L816 536zM796 563L794 564L796 564zM816 543L815 542zM812 543L813 542L812 543zM817 538L817 538zM812 549L813 549zM814 537L814 536zM818 537L818 537zM820 533L820 532zM818 534L818 534zM813 536L812 536z" id="福建省"/><path class="leaflet-interactive" stroke="#3388ff" stroke-opacity="0" stroke-width="3" stroke-linecap="round" stroke-linejoin="round" fill="#eee" fill-opacity="0.5" fill-rule="evenodd" d="M796 501L794 499L790 499L785 494L780 499L778 497L781 494L777 492L777 494L774 496L773 495L770 497L765 495L763 498L762 497L759 500L758 499L758 501L749 503L747 505L750 508L749 511L751 515L745 520L743 525L745 528L747 527L745 531L746 530L747 532L747 537L749 537L748 542L751 543L748 544L747 552L749 552L749 554L753 552L757 554L751 561L753 563L762 560L769 563L768 559L770 559L769 555L771 553L771 549L773 547L772 546L775 545L775 542L778 539L778 533L784 529L784 526L782 524L785 523L786 520L789 519L789 521L791 521L793 519L798 518L798 508L794 505L794 503L796 502z" id="江西省"/><path class="leaflet-interactive" stroke="#3388ff" stroke-opacity="0" stroke-width="3" stroke-linecap="round" stroke-linejoin="round" fill="#eee" fill-opacity="0.5" fill-rule="evenodd" d="M775 430L775 427L781 426L785 433L787 431L787 433L789 433L792 430L794 430L796 432L795 433L798 434L798 431L800 429L801 430L804 425L809 424L813 418L812 417L814 417L820 411L818 411L819 408L820 411L824 410L824 406L826 406L828 404L827 403L833 400L834 401L838 398L841 398L840 399L843 400L846 397L844 397L847 392L842 391L840 389L838 391L835 391L830 389L830 387L826 385L819 387L819 389L816 392L814 392L815 393L813 395L809 395L805 393L804 390L805 388L808 387L808 385L807 386L804 381L799 382L792 379L787 385L779 386L776 390L775 389L773 391L774 392L772 392L769 395L769 398L763 403L765 408L763 414L764 415L765 413L772 410L771 412L765 415L757 425L760 425L765 429L765 431L775 431zM825 384L825 384zM824 383L825 383zM828 406L827 406zM825 381L825 380zM827 378L827 378zM818 415L818 414zM823 384L823 383zM825 379L826 378zM833 389L833 389zM833 389L833 389zM833 389L833 389zM765 413L765 413z" id="山东省"/><path class="leaflet-interactive" stroke="#3388ff" stroke-opacity="0" stroke-width="3" stroke-linecap="round" stroke-linejoin="round" fill="#eee" fill-opacity="0.5" fill-rule="evenodd" d="M733 462L739 461L742 463L744 461L746 464L746 468L748 468L748 470L750 468L758 474L762 472L763 475L764 472L770 468L770 459L767 461L762 459L762 455L759 454L758 451L760 452L764 449L763 446L766 445L766 440L768 438L771 440L772 443L774 443L777 440L778 441L778 439L777 436L773 433L773 431L765 431L761 425L758 425L758 423L761 419L762 420L772 411L771 410L764 414L763 412L765 411L765 409L764 410L761 408L758 411L758 409L755 410L753 408L745 406L743 414L744 417L743 416L741 419L739 419L738 421L737 420L734 423L726 422L726 424L721 426L720 428L716 428L713 429L712 431L711 430L707 432L707 435L710 438L709 441L714 445L714 451L716 451L717 455L729 462L733 461zM745 463L745 463z" id="河南省"/><path class="leaflet-interactive" stroke="#3388ff" stroke-opacity="0" stroke-width="3" stroke-linecap="round" stroke-linejoin="round" fill="#eee" fill-opacity="0.5" fill-rule="evenodd" d="M714 451L714 449L711 452L709 449L708 451L701 449L696 451L700 452L700 454L702 454L705 458L699 458L697 461L698 470L705 477L703 482L702 481L695 486L688 485L684 487L686 489L685 495L686 497L686 495L688 496L688 498L690 498L690 502L691 501L693 504L696 501L696 499L701 496L705 496L707 498L710 496L708 492L711 491L722 494L729 499L734 498L734 496L736 496L736 500L738 500L743 495L745 499L745 505L751 503L752 501L757 501L759 500L758 499L759 500L766 495L770 497L772 495L772 491L768 484L771 480L769 478L766 478L761 472L756 473L754 469L751 470L750 468L748 470L748 468L746 468L745 466L745 461L742 463L739 461L730 462L720 458L715 450zM692 485L692 485zM714 450L714 451zM733 462L734 462zM736 496L736 496z" id="湖北省"/><path class="leaflet-interactive" stroke="#3388ff" stroke-opacity="0" stroke-width="3" stroke-linecap="round" stroke-linejoin="round" fill="#eee" fill-opacity="0.5" fill-rule="evenodd" d="M726 560L727 555L733 555L733 557L736 558L736 553L739 551L741 551L742 553L746 553L748 550L748 545L749 543L751 543L748 542L749 538L746 536L747 528L743 526L745 520L748 519L748 517L751 514L749 512L750 509L747 505L744 504L745 498L743 496L738 500L736 500L736 496L734 496L734 498L729 499L723 494L718 494L711 491L708 492L710 496L709 497L707 498L705 496L701 496L696 499L694 504L695 510L693 511L695 511L695 523L697 523L689 531L697 531L696 533L698 535L695 536L696 539L694 541L696 541L696 544L700 546L702 542L704 542L703 544L706 545L710 540L717 541L716 545L719 546L717 552L713 557L714 558L717 555L719 557L720 562L722 560L725 560zM697 535L697 535z" id="湖南省"/><path class="leaflet-interactive" stroke="#3388ff" stroke-opacity="0" stroke-width="3" stroke-linecap="round" stroke-linejoin="round" fill="#eee" fill-opacity="0.5" fill-rule="evenodd" d="M743 592L745 586L744 585L747 589L751 587L753 587L753 589L756 585L758 588L761 584L765 586L767 584L769 585L776 583L777 580L780 579L781 575L782 576L784 574L781 569L782 567L779 563L780 561L777 562L775 560L776 559L774 560L769 558L768 563L765 560L763 560L758 561L758 563L755 562L753 564L750 561L753 559L754 556L756 556L754 552L748 554L749 552L742 553L738 551L737 553L735 553L737 555L737 558L735 558L732 555L728 555L724 562L726 564L726 566L724 567L725 570L721 572L721 574L719 574L719 582L711 588L712 591L708 593L707 592L707 596L704 595L701 599L700 598L701 601L699 609L703 616L707 616L709 614L708 610L707 611L705 607L707 604L714 601L726 599L726 597L729 598L733 597L734 595L737 596L738 593L739 596L743 592zM782 577L784 577L783 576zM735 597L734 600L735 598zM731 599L733 599L731 599zM751 594L751 594zM707 604L709 606L710 604L707 604zM730 598L731 598zM708 606L707 605L705 607L708 608L709 606zM745 595L745 594zM745 595L745 595zM738 596L738 596zM746 589L746 589zM750 594L750 594zM750 595L749 594zM780 609L779 610L781 610L781 612L780 609zM737 596L737 596zM707 610L707 610zM710 607L710 608zM709 615L709 614zM770 605L771 606L770 605zM770 607L770 607zM769 585L769 585zM769 585L769 585z" id="广东省"/><path class="leaflet-interactive" stroke="#3388ff" stroke-opacity="0" stroke-width="3" stroke-linecap="round" stroke-linejoin="round" fill="#eee" fill-opacity="0.5" fill-rule="evenodd" d="M697 544L694 548L690 548L692 548L691 551L689 549L687 553L684 550L680 555L677 556L676 553L675 554L671 550L669 550L669 553L667 555L660 557L657 562L649 557L643 562L640 560L640 563L642 565L647 564L649 569L658 568L659 575L655 575L653 577L654 578L652 578L652 580L656 583L659 582L661 584L667 584L663 589L665 591L665 595L666 594L673 599L674 598L684 600L687 598L692 599L693 602L700 601L702 596L706 596L706 592L710 592L710 588L711 589L711 587L715 586L719 582L718 577L719 574L721 574L721 572L725 570L724 567L726 565L726 560L722 560L720 562L718 555L714 558L713 557L718 551L717 548L719 547L716 545L717 542L714 540L710 540L706 545L703 544L703 542L700 544L701 546L697 544zM647 558L647 558zM692 606L692 606z" id="广西壮族自治区"/><path class="leaflet-interactive" stroke="#3388ff" stroke-opacity="0" stroke-width="3" stroke-linecap="round" stroke-linejoin="round" fill="#eee" fill-opacity="0.5" fill-rule="evenodd" d="M704 618L699 618L693 621L687 627L687 637L698 641L704 638L706 635L708 635L710 627L714 623L714 618L704 618zM728 807L728 806zM740 758L741 757L740 758zM725 807L726 807zM719 654L720 653L719 654zM790 676L792 677L790 676zM728 806L728 806zM722 664L723 664zM721 664L720 665L722 663zM747 764L750 765L754 761L753 760L747 764zM748 750L748 750zM748 750L748 750zM725 663L725 662zM722 661L723 661zM728 750L727 750zM746 767L746 767zM750 751L751 751zM728 655L728 655zM756 733L756 732zM769 740L769 739zM755 737L756 737zM745 764L746 764zM696 767L702 765L697 766zM774 750L774 749zM731 667L732 666L730 666zM731 750L732 750zM753 727L755 727L754 726zM730 663L731 663zM776 732L777 732zM729 656L729 655zM720 661L720 661zM765 738L765 737zM756 757L757 758L756 757zM754 758L755 758zM761 755L762 755zM747 760L747 759zM764 744L765 743zM776 746L777 746zM744 748L744 748zM756 725L757 724L756 725zM755 720L755 719zM758 727L759 726zM720 661L721 661zM747 750L747 750zM702 761L703 760L702 761zM779 719L780 720L779 719zM722 660L722 660zM731 661L732 660L731 661zM723 666L723 666zM746 736L747 737L746 735zM757 758L757 758zM777 740L778 740zM763 734L763 734zM780 731L781 731zM756 665L756 664zM771 744L771 745zM744 746L745 746zM756 764L756 764zM754 728L754 727zM791 728L791 727zM751 734L751 733zM756 720L756 719zM778 731L779 731zM708 758L709 759L708 758zM719 754L720 753zM762 754L763 754zM739 759L740 758zM749 726L749 726zM785 733L785 733zM750 666L751 666zM709 760L710 759zM765 754L765 754zM720 765L720 764zM721 752L722 752zM708 762L708 762zM729 749L730 749zM776 739L776 739zM724 759L726 759L725 758zM753 671L754 671zM759 724L760 724zM749 666L750 666zM771 736L772 735zM785 729L787 729L786 728zM758 768L758 769zM735 749L735 749zM722 764L722 763zM728 750L728 750zM731 785L732 785zM755 750L756 749L755 750zM758 760L758 760zM736 755L736 755zM744 772L744 772zM779 662L779 662zM786 736L786 735zM737 625L736 625zM753 666L753 666zM746 629L746 628zM733 793L733 793zM721 761L721 760zM728 750L729 749zM735 761L736 761zM732 788L732 788zM731 787L731 786zM764 691L764 690zM743 734L744 734zM746 673L747 673zM736 794L736 794zM732 793L732 793zM729 787L730 787zM728 658L728 657zM728 670L728 670zM732 790L732 789zM731 786L731 785zM739 779L739 779zM773 741L773 741zM759 765L760 765zM720 762L721 761zM747 668L748 668zM759 666L758 667zM779 748L779 748zM733 662L733 661zM716 620L716 620zM768 731L769 731zM785 728L785 728zM733 663L733 662zM768 730L769 731zM731 742L732 742zM755 671L755 671zM786 724L786 725zM790 725L790 725zM750 744L750 744zM756 740L756 740zM732 783L732 783z" id="海南省"/><path class="leaflet-interactive" stroke="#3388ff" stroke-opacity="0" stroke-width="3" stroke-linecap="round" stroke-linejoin="round" fill="#eee" fill-opacity="0.5" fill-rule="evenodd" d="M661 512L663 512L662 509L664 511L663 513L665 513L667 511L666 509L670 507L673 508L673 504L677 503L678 506L682 505L685 511L687 511L686 514L687 515L688 512L688 516L691 517L695 511L693 511L695 509L695 506L692 503L693 502L690 501L689 497L688 498L688 496L685 495L686 490L684 487L692 484L693 486L695 486L701 481L703 481L705 477L704 474L699 472L699 470L694 470L692 467L684 464L685 465L683 467L686 470L680 477L680 481L673 483L674 484L670 492L665 493L663 489L660 490L655 488L652 491L654 495L652 495L652 497L649 498L651 501L650 502L654 502L654 506L660 508L661 512zM692 485L692 485zM652 491L652 491zM692 485L692 485zM669 492L669 492z" id="重庆市"/><path class="leaflet-interactive" stroke="#3388ff" stroke-opacity="0" stroke-width="3" stroke-linecap="round" stroke-linejoin="round" fill="#eee" fill-opacity="0.5" fill-rule="evenodd" d="M602 529L602 531L605 534L604 535L606 535L605 538L607 542L608 541L613 544L618 540L620 542L624 538L621 531L622 528L629 521L628 518L633 515L633 510L638 511L637 514L640 516L638 518L641 521L648 518L649 523L660 522L661 521L659 517L657 518L653 514L653 512L656 511L657 509L661 513L661 511L659 507L654 506L654 502L650 502L651 501L649 499L654 494L654 492L652 491L655 487L659 490L664 489L665 493L670 492L674 485L673 483L677 481L678 482L680 480L680 476L686 470L683 467L685 465L684 464L686 464L678 464L676 461L671 461L669 459L670 458L666 456L662 458L655 455L653 457L650 454L651 456L649 458L640 457L637 454L639 454L639 448L637 448L635 444L628 442L627 443L622 435L613 440L617 445L617 447L615 447L614 450L613 449L611 451L609 449L611 447L609 445L609 449L607 451L605 451L604 449L601 450L603 457L597 457L595 459L593 456L590 458L590 454L588 454L587 452L585 456L582 454L580 455L580 453L575 450L571 439L566 438L565 436L562 437L563 439L559 441L559 445L563 447L560 451L561 452L559 456L569 462L573 472L576 474L575 476L573 476L577 483L577 497L580 515L582 517L582 513L585 508L590 513L589 514L591 515L589 517L593 523L593 521L596 520L600 528L602 529zM660 490L660 490zM668 492L668 492zM652 490L652 490z" id="四川省"/><path class="leaflet-interactive" stroke="#3388ff" stroke-opacity="0" stroke-width="3" stroke-linecap="round" stroke-linejoin="round" fill="#eee" fill-opacity="0.5" fill-rule="evenodd" d="M694 513L691 517L688 516L689 514L686 513L687 512L686 510L684 510L682 505L679 506L677 505L677 503L673 503L673 507L671 509L670 507L666 509L666 513L663 513L664 510L662 508L663 511L661 513L657 509L653 512L653 514L657 518L660 518L660 522L651 522L649 523L648 527L647 526L645 528L641 528L640 526L636 528L634 527L630 531L632 533L631 537L634 538L636 536L639 536L642 539L640 541L641 542L638 549L640 551L641 550L640 552L644 555L643 554L640 560L642 562L646 560L648 557L652 560L657 561L660 557L669 554L668 553L671 550L675 554L676 553L677 556L680 555L682 553L681 552L683 552L683 550L687 553L689 549L691 551L692 548L690 548L694 548L697 544L696 541L694 541L696 539L695 536L697 534L697 530L692 530L690 532L689 531L693 526L697 524L695 522L696 515L694 515L694 513zM697 534L696 534zM697 535L697 535z" id="贵州省"/><path class="leaflet-interactive" stroke="#3388ff" stroke-opacity="0" stroke-width="3" stroke-linecap="round" stroke-linejoin="round" fill="#eee" fill-opacity="0.5" fill-rule="evenodd" d="M649 523L648 518L641 521L638 519L639 516L637 512L639 511L633 511L633 514L628 517L628 522L624 527L622 527L621 531L624 538L620 542L618 541L619 540L610 544L608 541L607 542L605 538L606 535L604 535L605 534L600 528L598 522L596 520L593 521L593 523L591 521L589 518L589 516L591 516L589 514L590 513L585 508L583 510L584 511L582 513L582 517L580 515L579 503L577 503L578 506L576 507L576 509L575 506L573 506L573 512L575 515L573 517L571 517L569 514L568 515L569 523L571 525L571 523L574 524L574 547L572 546L571 549L569 549L568 552L564 554L564 559L561 560L561 564L563 566L561 570L562 571L568 568L576 568L574 570L577 578L576 579L578 581L581 580L584 583L582 583L583 584L579 592L586 593L589 595L588 596L589 598L591 598L591 601L597 600L601 597L602 602L608 605L610 603L608 602L609 596L606 591L608 590L608 588L614 589L617 585L623 589L627 585L629 587L632 586L634 588L636 584L639 586L644 583L644 580L649 578L651 578L652 580L652 578L654 578L653 577L655 575L659 575L658 568L651 569L648 567L647 564L642 565L640 563L640 559L644 554L641 552L641 550L640 551L638 549L638 547L639 548L642 539L639 535L638 537L631 537L632 533L630 531L634 526L635 528L640 526L640 528L644 528L647 526L648 527L649 524z" id="云南省"/><path class="leaflet-interactive" stroke="#3388ff" stroke-opacity="0" stroke-width="3" stroke-linecap="round" stroke-linejoin="round" fill="#eee" fill-opacity="0.5" fill-rule="evenodd" d="M472 410L466 407L465 408L463 406L462 407L459 405L453 405L433 409L429 415L428 414L422 416L421 414L413 417L411 420L397 420L395 416L392 417L389 415L388 418L386 418L385 421L382 422L374 420L364 421L365 423L361 426L362 427L360 428L359 432L353 434L350 433L350 435L346 439L346 444L353 454L353 459L350 462L347 459L347 457L343 459L343 464L347 468L347 475L352 480L358 480L363 486L364 485L373 489L374 493L376 493L375 492L378 487L384 489L385 488L385 490L388 493L393 497L398 498L400 502L403 504L407 502L410 508L412 508L416 512L419 510L420 515L426 515L430 520L431 517L434 520L438 518L443 521L454 521L454 519L455 520L460 517L462 519L461 526L464 529L466 527L465 524L472 516L476 516L482 519L483 518L487 521L490 518L492 519L494 522L493 525L496 525L499 528L499 534L505 532L516 533L524 524L535 520L536 517L541 515L549 517L551 520L554 520L556 522L559 519L559 515L561 515L560 514L562 512L567 517L569 515L568 514L570 515L571 518L574 515L573 506L575 506L576 509L577 508L576 507L578 503L578 492L576 484L577 483L573 477L573 475L576 475L572 471L568 462L564 459L558 459L558 464L553 467L551 466L553 470L549 470L548 467L546 467L546 472L543 469L541 471L539 469L538 470L536 466L537 464L535 464L535 462L533 463L534 462L528 458L524 460L523 459L522 461L518 459L515 460L512 457L501 457L499 454L495 454L492 451L485 452L479 449L478 447L476 447L475 443L471 439L473 436L473 428L470 427L469 420L472 419L473 414L468 413L468 411L471 410z" id="西藏自治区"/><path class="leaflet-interactive" stroke="#3388ff" stroke-opacity="0" stroke-width="3" stroke-linecap="round" stroke-linejoin="round" fill="#eee" fill-opacity="0.5" fill-rule="evenodd" d="M707 431L705 430L709 418L707 398L712 389L708 381L709 378L711 378L713 375L714 368L716 367L717 364L715 360L710 364L705 362L704 365L701 364L702 366L691 378L690 380L692 382L690 384L689 382L689 388L681 388L677 385L673 387L671 392L672 399L677 400L680 403L687 406L687 420L685 422L677 421L676 422L678 426L674 427L671 427L668 424L663 424L664 429L661 431L665 435L663 435L664 437L662 439L664 444L663 446L655 446L654 449L657 450L655 454L651 454L652 457L655 455L662 458L666 456L669 457L671 461L673 459L679 464L685 463L690 467L698 470L698 458L703 459L704 456L700 454L699 451L697 451L699 449L708 451L709 449L709 451L711 452L714 449L714 445L710 441L710 437L707 435L707 431zM714 446L714 447zM658 456L658 456z" id="陕西省"/><path class="leaflet-interactive" stroke="#3388ff" stroke-opacity="0" stroke-width="3" stroke-linecap="round" stroke-linejoin="round" fill="#eee" fill-opacity="0.5" fill-rule="evenodd" d="M663 415L663 419L661 422L659 419L656 420L658 419L655 419L655 417L651 415L649 412L652 409L648 402L649 399L645 397L643 394L641 394L642 391L636 391L631 386L628 385L628 378L633 374L634 370L637 367L635 362L628 363L623 367L617 365L612 366L610 367L612 370L609 373L605 372L602 369L603 368L598 368L598 362L594 363L592 359L585 355L582 355L586 354L588 351L591 350L592 344L589 340L579 341L579 343L577 342L575 343L575 345L574 342L570 345L570 340L562 332L564 329L557 311L548 312L545 314L543 316L545 323L535 330L533 327L529 331L527 331L519 339L518 344L508 345L506 359L502 365L503 368L506 366L510 366L511 370L519 370L518 371L520 373L524 372L527 377L534 377L537 379L540 377L546 381L548 379L551 380L551 376L555 374L554 368L556 365L567 372L569 368L572 369L575 367L579 369L578 370L587 378L591 380L589 376L590 375L594 379L598 381L599 380L599 382L602 385L607 385L613 389L619 396L617 396L617 398L620 401L618 401L623 408L623 412L621 414L620 413L619 415L621 418L620 419L618 417L616 420L615 419L616 422L611 428L611 431L614 434L610 438L600 434L597 437L602 442L602 444L606 443L607 446L610 445L611 447L609 449L611 451L613 449L614 450L615 447L617 447L613 440L619 438L618 437L621 435L625 438L625 442L636 445L639 449L638 454L641 457L649 458L651 454L655 454L657 450L654 449L655 446L664 445L662 440L665 434L661 432L663 429L663 425L667 424L673 427L678 425L676 422L677 421L685 422L687 420L685 413L688 411L688 409L686 405L675 400L670 395L665 395L665 400L661 404L663 404L663 408L668 409L668 414L666 416L663 415zM658 418L658 418zM621 406L621 407zM658 419L658 420zM663 415L663 415z" id="甘肃省"/><path class="leaflet-interactive" stroke="#3388ff" stroke-opacity="0" stroke-width="3" stroke-linecap="round" stroke-linejoin="round" fill="#eee" fill-opacity="0.5" fill-rule="evenodd" d="M621 406L621 404L618 401L620 401L617 397L618 394L611 387L610 388L607 385L604 386L599 382L599 380L598 381L597 379L593 379L590 375L589 376L591 380L587 378L578 370L579 369L575 367L573 369L570 368L567 372L556 365L554 367L554 375L553 374L551 376L551 379L547 379L547 381L543 380L540 377L538 379L534 377L527 378L525 372L518 372L519 371L517 370L512 370L511 366L506 366L500 369L483 373L480 376L476 376L478 380L480 378L481 387L488 391L490 397L486 399L485 398L483 401L484 404L487 404L488 410L485 411L476 408L474 410L469 411L468 413L473 414L472 419L469 420L470 426L473 427L473 437L471 439L475 443L475 445L483 451L492 451L495 454L499 454L501 457L506 456L510 458L511 457L515 460L518 459L522 461L528 457L531 461L537 464L536 467L538 470L542 469L546 472L545 469L547 467L551 471L552 466L556 466L558 462L559 463L558 459L563 459L559 457L559 453L561 453L560 451L563 447L559 445L559 441L561 441L563 439L562 437L565 436L567 438L571 438L575 450L579 452L580 455L581 454L586 456L587 453L590 454L590 458L592 456L594 456L596 459L603 457L601 450L604 449L604 451L607 451L609 447L606 443L603 444L602 441L599 440L598 435L599 434L610 438L614 434L611 431L611 427L616 423L615 419L616 420L617 417L620 419L621 418L619 415L622 414L622 410L624 408L621 407z" id="青海省"/><path class="leaflet-interactive" stroke="#3388ff" stroke-opacity="0" stroke-width="3" stroke-linecap="round" stroke-linejoin="round" fill="#eee" fill-opacity="0.5" fill-rule="evenodd" d="M671 396L673 387L676 386L671 381L663 379L668 369L665 363L660 365L656 371L656 379L654 381L654 386L638 391L642 391L641 394L648 397L650 401L648 401L648 403L652 409L649 412L661 422L663 420L663 415L665 416L668 414L668 410L664 408L661 403L662 404L665 400L663 398L664 395L671 396zM658 419L656 419L658 419zM658 419L658 419z" id="宁夏回族自治区"/><path class="leaflet-interactive" stroke="#3388ff" stroke-opacity="0" stroke-width="3" stroke-linecap="round" stroke-linejoin="round" fill="#eee" fill-opacity="0.5" fill-rule="evenodd" d="M548 312L542 304L538 292L536 292L537 289L531 288L515 277L492 275L486 273L484 271L483 265L487 260L485 255L487 253L487 249L481 239L480 234L476 231L476 229L472 230L469 226L464 227L463 225L461 225L459 221L452 216L453 215L450 212L450 206L446 208L441 207L438 209L438 215L434 219L433 218L426 221L424 225L426 240L423 243L421 243L418 246L416 244L406 244L397 240L396 241L387 265L387 268L391 271L390 274L387 272L384 273L380 271L376 273L375 272L373 274L367 274L360 278L366 282L366 292L370 300L370 306L366 308L368 310L366 310L363 314L365 320L363 320L363 322L357 326L346 330L346 332L345 331L341 333L336 337L337 338L326 338L324 340L323 345L320 348L319 347L313 349L311 345L312 344L307 347L303 346L303 349L293 353L291 356L292 360L287 363L291 368L290 373L292 375L297 373L303 377L303 388L306 391L306 393L298 395L300 397L303 396L303 398L309 398L310 401L314 401L316 404L315 409L318 413L317 414L322 413L322 415L326 417L332 419L339 419L341 429L348 434L360 432L362 427L361 426L366 419L370 421L377 420L382 422L385 421L384 419L386 419L389 415L392 417L395 416L397 420L411 420L414 417L421 414L424 416L428 415L431 413L433 409L438 407L440 408L446 405L447 407L459 405L470 410L474 410L476 408L485 411L488 410L487 405L483 402L483 400L485 398L486 399L490 397L490 395L488 391L482 387L481 378L478 380L476 377L480 376L483 373L494 371L501 368L506 359L508 345L518 344L519 339L527 331L529 331L533 327L535 329L543 325L545 323L543 317L545 314z" id="新疆维吾尔自治区"/><path class="leaflet-interactive" stroke="#3388ff" stroke-opacity="0" stroke-width="3" stroke-linecap="round" stroke-linejoin="round" fill="#eee" fill-opacity="0.5" fill-rule="evenodd" d="M821 589L824 591L824 595L826 596L827 588L833 580L835 569L838 564L837 560L839 557L834 553L827 558L819 572L817 573L817 581L820 588zM868 546L868 545zM856 548L856 548zM812 575L812 576zM858 546L858 545zM811 574L810 575L811 574zM811 577L811 578zM811 574L812 574zM840 549L840 549zM833 586L834 586zM834 593L833 594L835 594L834 593zM840 551L840 551zM810 579L810 579zM820 590L821 590z" id="台湾省"/><path class="leaflet-interactive" stroke="#3388ff" stroke-opacity="0" stroke-width="3" stroke-linecap="round" stroke-linejoin="round" fill="#eee" fill-opacity="0.5" fill-rule="evenodd" d="M748 588L746 592L749 590L751 592L751 590L753 590L750 589L752 588L749 588zM750 592L749 591L750 592zM752 590L752 590zM752 590L752 590zM752 590L752 590zM752 591L752 591zM752 590L752 590zM752 590L752 590zM752 591L752 591z" id="香港特别行政区"/><path class="leaflet-interactive" stroke="#3388ff" stroke-opacity="0" stroke-width="3" stroke-linecap="round" stroke-linejoin="round" fill="#eee" fill-opacity="0.5" fill-rule="evenodd" d="M743 593L743 593zM743 592L743 592z" id="澳门特别行政区"/><path class="leaflet-interactive" stroke="#3388ff" stroke-opacity="0" stroke-width="3" stroke-linecap="round" stroke-linejoin="round" fill="#eee" fill-opacity="0.5" fill-rule="evenodd" d="M845 576L848 562L845 576zM830 609L838 598L830 609zM810 643L817 630L810 643zM806 678L806 666L806 678zM801 723L800 726L805 714L803 718zM766 769L774 760L766 769zM729 811L723 812L735 809L731 810zM683 782L683 770L683 782zM704 721L703 722L706 718L706 712L705 719zM701 676L695 664L700 673z" id="100000_JD"/></g></svg>